<?xml version="1.0" encoding="utf-8"?>
<!-- Generator: Adobe Illustrator 28.0.0, SVG Export Plug-In . SVG Version: 6.00 Build 0)  -->
<svg version="1.1" id="Layer_1" xmlns="http://www.w3.org/2000/svg" xmlns:xlink="http://www.w3.org/1999/xlink" x="0px" y="0px"
	 viewBox="0 0 1080 1080" style="enable-background:new 0 0 1080 1080;" xml:space="preserve">
<style type="text/css">
	.st0{fill:#0D0D0D;}
	.st1{fill:#282B30;}
	.st2{fill:url(#SVGID_1_);}
	.st3{fill:url(#SVGID_00000068652587748017766510000015598260883368475313_);}
	.st4{fill:url(#SVGID_00000158013260937491066770000016913922092786776744_);}
	.st5{fill:url(#SVGID_00000178168476640226002030000006059583750935301792_);}
	.st6{fill:url(#SVGID_00000096027097682284220360000006312449890065998215_);}
	.st7{fill:url(#SVGID_00000082333055107162284260000015049365638214474123_);}
	.st8{fill:url(#SVGID_00000169551470804394083520000003001162368609071264_);}
	.st9{fill:#96F1D2;}
	.st10{fill:#C281D5;}
	.st11{fill:#F9FAEA;}
	.st12{fill:#FFFFFF;}
	.st13{fill:url(#SVGID_00000147220512130134522920000001071543652009846679_);}
	.st14{fill:url(#SVGID_00000171001530070385578440000000831390036530176153_);}
	.st15{fill:url(#SVGID_00000121981515140703186360000001940546138840356243_);}
	.st16{fill:url(#SVGID_00000013896963005879615290000014100784073815042974_);}
	.st17{fill:url(#SVGID_00000129206785590902031530000004285014761774026624_);}
	.st18{fill:url(#SVGID_00000108996033788112784540000009956963543593856183_);}
	.st19{fill:url(#SVGID_00000033337381909055826840000008147043140492701884_);}
	.st20{fill:url(#SVGID_00000129910310156071007570000005885288380652349359_);}
	.st21{fill:url(#SVGID_00000043434230209218421450000007260490819477918336_);}
	.st22{fill:url(#SVGID_00000006665912256494462380000000682906417891549616_);}
	.st23{fill:url(#SVGID_00000002355846373125559590000002590918935787886492_);}
	.st24{fill:url(#SVGID_00000051362195531638641880000012659172002817974152_);}
	.st25{fill:url(#SVGID_00000021820362454001671810000001132423606845149843_);}
	.st26{fill:url(#SVGID_00000026122975770999377790000009426147238196936858_);}
	.st27{fill:url(#SVGID_00000134237590101800560750000007425665834861540759_);}
	.st28{fill:url(#SVGID_00000017483938251490091550000011039230461656060341_);}
	.st29{fill:url(#SVGID_00000049213541910474942320000008052177337852954263_);}
	.st30{fill:url(#SVGID_00000027571286859302902100000013501312411743173531_);}
	.st31{fill:url(#SVGID_00000119116372660903015400000002029950475198259095_);}
	.st32{fill:url(#SVGID_00000085947324514631046260000005877009778177781684_);}
	.st33{fill:url(#SVGID_00000145759860824510760910000006795622263131265955_);}
	.st34{fill:url(#SVGID_00000015315283408334679260000000888516316317143198_);}
	.st35{fill:url(#SVGID_00000084500168097770619670000010860562976431739792_);}
	.st36{fill:url(#SVGID_00000047042619791115330840000001673761898781145493_);}
	.st37{fill:url(#SVGID_00000069377174609920761530000015480817257413152906_);}
	.st38{fill:url(#SVGID_00000062163000519804946300000016503997527672584883_);}
	.st39{fill:url(#SVGID_00000005264551380917068510000012886204506236177827_);}
	.st40{fill:url(#SVGID_00000065794772125353156400000017596039114753673610_);}
	.st41{fill:url(#SVGID_00000136390485230504329200000008339384717130330297_);}
	.st42{fill:url(#SVGID_00000023997352092010674950000010071403531370984622_);}
	.st43{fill:url(#SVGID_00000008108976033890932050000014906725020929614746_);}
	.st44{fill:url(#SVGID_00000118362949021056200820000006774152878621762742_);}
	.st45{fill:url(#SVGID_00000032640874120015971610000016390242246608043699_);}
	.st46{fill:url(#SVGID_00000133492792542997688790000007425316256274035610_);}
	.st47{fill:url(#SVGID_00000150077999637840512910000015219531927750054555_);}
	.st48{fill:url(#SVGID_00000137840082279091180860000006698624607177605282_);}
	.st49{fill:url(#SVGID_00000061435153090851687540000005101795134676853437_);}
	.st50{fill:url(#SVGID_00000168109968100406415110000001732003731934020228_);}
	.st51{fill:url(#SVGID_00000055672575308633553790000005005068351523537553_);}
	.st52{fill:url(#SVGID_00000132073409315949675920000006617984535589512377_);}
	.st53{fill:url(#SVGID_00000094581153244755718300000011679301035115562120_);}
	.st54{fill:url(#SVGID_00000111913860956168744010000005539700268680073122_);}
	.st55{fill:url(#SVGID_00000133522872633290029650000014411259249595161990_);}
	.st56{fill:url(#SVGID_00000118373171727122106730000017824613171150105246_);}
	.st57{fill:url(#SVGID_00000065040676850323027920000003900725298046210744_);}
	.st58{fill:url(#SVGID_00000026842288926469932330000004058337492556890793_);}
	.st59{fill:url(#SVGID_00000037661497662810228350000005032940150928851333_);}
	.st60{fill:url(#SVGID_00000042700946277506309620000007465027815823180981_);}
	.st61{fill:url(#SVGID_00000054962212984425552040000005988996679610973343_);}
	.st62{fill:url(#SVGID_00000119082469149958735390000002864081883553764736_);}
	.st63{fill:url(#SVGID_00000174567351888150841260000002396044478416627844_);}
	.st64{fill:#333333;}
	.st65{fill:url(#SVGID_00000018219279826521137280000002557463573666414474_);}
	.st66{fill:url(#SVGID_00000079473801684731153480000005061888679342075538_);}
	.st67{fill:url(#SVGID_00000021823111372177901360000011694257790653943737_);}
	.st68{fill:#6166A6;}
	.st69{fill:#FA889E;}
</style>
<g>
	<g>
		<linearGradient id="SVGID_1_" gradientUnits="userSpaceOnUse" x1="187.4942" y1="372.8758" x2="150.3486" y2="590.313">
			<stop  offset="5.327789e-09" style="stop-color:#FFC892"/>
			<stop  offset="1" style="stop-color:#FA839F"/>
		</linearGradient>
		<path class="st2" d="M191.2,572.06c-10.78,6.71-21.18,14.43-29.77,24.01c-6.76-10.09-13.41-20.36-19.25-31.02
			c-6.43-11.75-10.98-24.94-13.07-38.46c2.05,2.3,4.26,4.47,6.6,6.49c0.89,0.71,3.31,2.61,4.17,3.28c1.35,0.95,3.71,2.49,5.09,3.42
			c1.41,0.79,3.86,2.16,5.3,2.97c-1.17-1.11-3.22-3.02-4.39-4.12c-1.09-1.19-2.96-3.2-4-4.4c-0.65-0.83-2.44-3.13-3.11-3.98
			c-5.38-6.89-8.94-15.36-9.93-24.11c-1.07-9.41,1.27-18.82,3.93-27.78c0.91-3.06,1.91-6.09,3-9.1c0.88,2.94,1.95,5.83,3.2,8.64
			c0.51,1.02,1.88,3.77,2.37,4.75c0.81,1.43,2.28,3.84,3.14,5.26c0.93,1.31,2.56,3.6,3.52,4.94c-0.6-1.5-1.63-4.1-2.22-5.59
			c-0.48-1.53-1.31-4.15-1.74-5.69c-0.23-1.03-0.87-3.88-1.11-4.93c-1.88-8.23-1.98-18.11,0.93-26.18
			c2.77-7.68,7.07-14.69,11.66-21.4c2.22-3.24,4.51-6.44,6.82-9.62c1.3-1.79,2.63-3.57,3.96-5.35c1.03-1.37,3.24-3.32,3.76-4.93
			c-3.14,9.82-5.42,20.85-5.58,32.41c-0.54,38.05,7.57,62.92,15.41,86.97C184.56,542.9,189,556.49,191.2,572.06z"/>
		
			<linearGradient id="SVGID_00000168090528857997954500000007986077711092546197_" gradientUnits="userSpaceOnUse" x1="204.4181" y1="375.7669" x2="167.2725" y2="593.2042">
			<stop  offset="5.327789e-09" style="stop-color:#FFC892"/>
			<stop  offset="1" style="stop-color:#FA839F"/>
		</linearGradient>
		<path style="fill:url(#SVGID_00000168090528857997954500000007986077711092546197_);" d="M196.7,370.21
			c-0.04,61.94-0.08,132.13-0.12,198.6c-0.35,0.21-0.69,0.41-1.05,0.62c-2.34-15.13-6.67-28.37-11.22-42.34
			c-7.72-23.69-15.71-48.18-15.18-85.46c0.18-12.45,2.99-25,7.93-36.56c5.26-12.32,13.34-22.88,19.54-34.67
			C196.63,370.33,196.67,370.27,196.7,370.21z"/>
		
			<linearGradient id="SVGID_00000165209664554409813270000005102552530456940197_" gradientUnits="userSpaceOnUse" x1="199.2952" y1="664.4409" x2="231.9215" y2="664.4409">
			<stop  offset="2.770450e-07" style="stop-color:#99EFD4"/>
			<stop  offset="1" style="stop-color:#86E9CC"/>
		</linearGradient>
		<path style="fill:url(#SVGID_00000165209664554409813270000005102552530456940197_);" d="M230.93,654.25
			c-24.73,21.33-28.17,40.46-28.57,47.08c-0.08,1.27,0.12,2.51,0.47,3.73c1.22,4.29-3.53,4.73-3.53,4.73v-49.72
			c3.77-1.12,6.53-4.62,6.53-8.75c0-4.13-2.76-7.63-6.53-8.75v-23.49c20.51,1.83,23.42,6.78,23.42,6.78
			c2.42,12.18,6.77,21.06,8.85,24.84C232.22,651.89,231.95,653.36,230.93,654.25z"/>
		
			<linearGradient id="SVGID_00000101815965884398015080000001411322807319747749_" gradientUnits="userSpaceOnUse" x1="191.1226" y1="614.9929" x2="222.714" y2="614.9929">
			<stop  offset="2.770450e-07" style="stop-color:#99EFD4"/>
			<stop  offset="1" style="stop-color:#86E9CC"/>
		</linearGradient>
		<path style="fill:url(#SVGID_00000101815965884398015080000001411322807319747749_);" d="M222.71,615.62v4.23
			c0,0.4-0.41,0.66-0.77,0.5c-7.59-3.37-16.03-5.14-25.24-5.44c-0.05,0-0.1,0-0.15,0.01c-1.85,0.06-3.65,0.18-5.43,0.37
			c1.71-1.2,3.52-2.38,5.43-3.58c0.05-0.03,0.09-0.06,0.15-0.09c1.09-0.68,2.22-1.36,3.38-2.04h0.01c0.01,0,0.01,0,0.01,0
			c8.25,0.27,15.87,1.73,22.35,5.56C222.61,615.25,222.71,615.43,222.71,615.62z"/>
		
			<linearGradient id="SVGID_00000106142501332423045760000008497197118874193324_" gradientUnits="userSpaceOnUse" x1="154.9886" y1="572.4026" x2="300.787" y2="572.4026">
			<stop  offset="5.327789e-09" style="stop-color:#42148C"/>
			<stop  offset="1" style="stop-color:#96F1D2"/>
		</linearGradient>
		<path style="fill:url(#SVGID_00000106142501332423045760000008497197118874193324_);" d="M277.93,553.9
			c-21.36,21.66-50.4,33.4-75.98,47.7c-1.87,1.04-3.67,2.07-5.39,3.09c-2.92,1.74-5.63,3.47-8.17,5.22
			c-3.77,2.58-7.13,5.2-10.09,7.91c-0.38,0.34-0.74,0.69-1.11,1.03c-2.1,2-3.98,4.04-5.66,6.16c-0.32,0.39-0.63,0.78-0.92,1.18
			c-9.96,13.19-12.49,29.23-10.23,53.37c-40.51-120.89,161.65-83.23,131.71-214.31C307.32,496.17,302.51,529.36,277.93,553.9z"/>
		
			<linearGradient id="SVGID_00000120520553348968628230000002227623195266380676_" gradientUnits="userSpaceOnUse" x1="148.8262" y1="572.4026" x2="295.1266" y2="572.4026">
			<stop  offset="0" style="stop-color:#7F5AB9"/>
			<stop  offset="1" style="stop-color:#96F1D2"/>
		</linearGradient>
		<path style="fill:url(#SVGID_00000120520553348968628230000002227623195266380676_);" d="M160.38,679.56
			c-14.42-22.84-16.42-50.43,0.17-72.92c1.37-1.88,2.82-3.69,4.35-5.44c8.88-10.26,20.04-18.34,31.69-25.4
			c7.78-4.73,15.8-8.99,23.5-13.14c46.98-24.74,72.3-39.84,72.01-97.4C322.03,596.33,119.87,558.67,160.38,679.56z"/>
		
			<linearGradient id="SVGID_00000119100396401364767920000016940614062125709502_" gradientUnits="userSpaceOnUse" x1="165.8454" y1="664.4409" x2="194.0999" y2="664.4409">
			<stop  offset="0" style="stop-color:#7F5AB9"/>
			<stop  offset="1" style="stop-color:#B188CE"/>
		</linearGradient>
		<path style="fill:url(#SVGID_00000119100396401364767920000016940614062125709502_);" d="M194.1,619.09v23.49
			c-3.77,1.12-6.53,4.62-6.53,8.75c0,4.14,2.76,7.63,6.53,8.75v49.72c0,0-4.74-0.44-3.53-4.73c0.35-1.22,0.55-2.46,0.47-3.73
			c-0.38-6.31-3.52-23.96-25.19-44.05c1.06-14.1,5.51-24.32,14.85-33.49c1.18-1.16,2.43-2.3,3.77-3.42
			C187.14,619.87,190.32,619.42,194.1,619.09z"/>
		<g>
			
				<radialGradient id="SVGID_00000021089131812645594500000008698636498208676783_" cx="206.3118" cy="497.8338" r="75.181" gradientUnits="userSpaceOnUse">
				<stop  offset="0.2369" style="stop-color:#AC84CC"/>
				<stop  offset="1" style="stop-color:#90ECD0"/>
			</radialGradient>
			<path style="fill:url(#SVGID_00000021089131812645594500000008698636498208676783_);" d="M205.3,469.02l16.9-16.9V434.9
				l-9.59-9.6V406c1.83-0.87,3.1-2.74,3.1-4.9c0-3-2.43-5.43-5.43-5.43s-5.43,2.43-5.43,5.43c0,2.17,1.27,4.03,3.1,4.9v21.24
				l9.59,9.6v13.35l-16.9,16.9v10.98l4.66,3.85V469.02z"/>
			
				<radialGradient id="SVGID_00000155864493567027957790000010919554742537437610_" cx="206.3118" cy="497.8338" r="75.181" gradientUnits="userSpaceOnUse">
				<stop  offset="0.2369" style="stop-color:#AC84CC"/>
				<stop  offset="1" style="stop-color:#90ECD0"/>
			</radialGradient>
			<path style="fill:url(#SVGID_00000155864493567027957790000010919554742537437610_);" d="M219.6,545.77v-21.23l-13.17-13.17
				l-3.61,2.98l12.12,12.12v19.3c-1.83,0.87-3.1,2.74-3.1,4.9c0,3,2.43,5.43,5.43,5.43c3,0,5.43-2.43,5.43-5.43
				C222.7,548.51,221.44,546.65,219.6,545.77z"/>
			
				<radialGradient id="SVGID_00000034774495269789513070000018246840290008553112_" cx="206.3118" cy="497.8338" r="75.181" gradientUnits="userSpaceOnUse">
				<stop  offset="0.2369" style="stop-color:#AC84CC"/>
				<stop  offset="1" style="stop-color:#90ECD0"/>
			</radialGradient>
			<path style="fill:url(#SVGID_00000034774495269789513070000018246840290008553112_);" d="M206.16,449.91
				c3.05,0,5.52-2.47,5.52-5.52c0-3.05-2.47-5.52-5.52-5.52c-3.05,0-5.52,2.47-5.52,5.52C200.64,447.44,203.11,449.91,206.16,449.91
				z"/>
			
				<radialGradient id="SVGID_00000078757892124788119410000004179250412192099000_" cx="206.3118" cy="497.8338" r="75.181" gradientUnits="userSpaceOnUse">
				<stop  offset="0.2369" style="stop-color:#AC84CC"/>
				<stop  offset="1" style="stop-color:#90ECD0"/>
			</radialGradient>
			<path style="fill:url(#SVGID_00000078757892124788119410000004179250412192099000_);" d="M218.88,417.66v5.94l9.7,9.95v21.29
				l-14.79,16.03v18.06l4.66,3.86v-20.1l14.79-16.03v-25.02l-9.7-9.95v-4.05c1.83-0.87,3.1-2.74,3.1-4.9c0-3-2.43-5.43-5.43-5.43
				c-3,0-5.43,2.43-5.43,5.43C215.78,414.93,217.05,416.79,218.88,417.66z"/>
			
				<radialGradient id="SVGID_00000160912978394231555630000013655671090649012663_" cx="206.3118" cy="497.8338" r="75.181" gradientUnits="userSpaceOnUse">
				<stop  offset="0.2369" style="stop-color:#AC84CC"/>
				<stop  offset="1" style="stop-color:#90ECD0"/>
			</radialGradient>
			<path style="fill:url(#SVGID_00000160912978394231555630000013655671090649012663_);" d="M246.15,510.46L246.15,510.46l4.03,3.94
				h4.05c0.87-1.83,2.74-3.1,4.9-3.1c3,0,5.44,2.44,5.44,5.44c0,3-2.43,5.44-5.44,5.44c-2.16,0-4.03-1.27-4.9-3.1h-5.95l-9.94-9.7
				h-6.95l15.86,15.86v5.77c1.83,0.88,3.1,2.74,3.1,4.91c0,1.27-0.44,2.44-1.17,3.37c-0.74,0.93-1.78,1.61-2.96,1.9
				c-0.42,0.11-0.85,0.16-1.3,0.16c-3,0-5.44-2.43-5.44-5.43c0-2.17,1.27-4.03,3.1-4.91v-3.84l-17.79-17.79h-5.34l12.78,12.78v19.95
				c1.83,0.87,3.1,2.74,3.1,4.9c0,0.22-0.01,0.44-0.04,0.65c-0.33,2.7-2.62,4.78-5.4,4.78c-0.84,0-1.64-0.19-2.34-0.53
				c-1.83-0.88-3.09-2.74-3.09-4.91c0-2.16,1.27-4.03,3.1-4.9v-18.02l-14.71-14.71h-3.97l5.64-4.66h25.7l2.58,2.52l8.35-8.05h5.93
				c0.87-1.83,2.74-3.1,4.9-3.1c3,0,5.44,2.43,5.44,5.44c0,3-2.43,5.44-5.44,5.44c-2.16,0-4.03-1.27-4.9-3.1h-4.05L246.15,510.46z"
				/>
			
				<radialGradient id="SVGID_00000166662997604844374740000001244822768739595151_" cx="206.3118" cy="497.8338" r="75.181" gradientUnits="userSpaceOnUse">
				<stop  offset="0.2369" style="stop-color:#AC84CC"/>
				<stop  offset="1" style="stop-color:#90ECD0"/>
			</radialGradient>
			<path style="fill:url(#SVGID_00000166662997604844374740000001244822768739595151_);" d="M204.42,506.45l3.81-3.15l0.04-0.03
				l5.16-4.26l0.69-0.57c0.83-0.69,0.83-1.97,0-2.65l-0.69-0.57l-9.01-7.45c-1.12-0.93-2.82-0.13-2.82,1.33v16.03
				C201.6,506.58,203.3,507.39,204.42,506.45z"/>
			
				<radialGradient id="SVGID_00000005974830409186778240000006109811411794319286_" cx="206.3118" cy="497.8338" r="75.181" gradientUnits="userSpaceOnUse">
				<stop  offset="0.2369" style="stop-color:#AC84CC"/>
				<stop  offset="1" style="stop-color:#90ECD0"/>
			</radialGradient>
			<path style="fill:url(#SVGID_00000005974830409186778240000006109811411794319286_);" d="M254.23,485.08h-5.94l-9.94,9.7h-17.56
				c1.18,1.33,1.18,3.34,0,4.66h19.45l9.95-9.7h4.05c0.87,1.83,2.74,3.1,4.9,3.1c3,0,5.43-2.43,5.43-5.43c0-3-2.43-5.43-5.43-5.43
				C256.97,481.97,255.1,483.24,254.23,485.08z"/>
			
				<radialGradient id="SVGID_00000140693092668111932790000010831966756413691274_" cx="206.3118" cy="497.8338" r="75.181" gradientUnits="userSpaceOnUse">
				<stop  offset="0.2369" style="stop-color:#AC84CC"/>
				<stop  offset="1" style="stop-color:#90ECD0"/>
			</radialGradient>
			<path style="fill:url(#SVGID_00000140693092668111932790000010831966756413691274_);" d="M239.82,453.24v6.59l-7.52,7.52
				c-0.68-0.24-1.43-0.36-2.2-0.3c-2.99,0.21-5.25,2.8-5.05,5.8c0.21,2.99,2.8,5.25,5.8,5.05c2.99-0.21,5.25-2.8,5.05-5.8
				c-0.03-0.51-0.14-0.99-0.31-1.44l8.89-8.89v-8.53c1.83-0.87,3.1-2.74,3.1-4.9c0-3-2.43-5.43-5.43-5.43c-3,0-5.43,2.43-5.43,5.43
				C236.72,450.5,237.99,452.37,239.82,453.24z"/>
			
				<radialGradient id="SVGID_00000057137729201320451060000000181029643386744244_" cx="206.3118" cy="497.8338" r="75.181" gradientUnits="userSpaceOnUse">
				<stop  offset="0.2369" style="stop-color:#AC84CC"/>
				<stop  offset="1" style="stop-color:#90ECD0"/>
			</radialGradient>
			<path style="fill:url(#SVGID_00000057137729201320451060000000181029643386744244_);" d="M211.6,529.5c0,2.17-1.27,4.03-3.1,4.91
				v27.69c-1.55,0.85-3.1,1.7-4.66,2.57v-30.26c-1.83-0.88-3.1-2.74-3.1-4.91c0-3,2.44-5.43,5.44-5.43
				C209.16,524.07,211.6,526.5,211.6,529.5z"/>
			
				<radialGradient id="SVGID_00000101097658915150310970000015263069051556532399_" cx="206.3118" cy="497.8338" r="75.181" gradientUnits="userSpaceOnUse">
				<stop  offset="0.2369" style="stop-color:#AC84CC"/>
				<stop  offset="1" style="stop-color:#90ECD0"/>
			</radialGradient>
			<path style="fill:url(#SVGID_00000101097658915150310970000015263069051556532399_);" d="M244.75,467.97
				c0,2.17,1.27,4.03,3.1,4.9v0.54l-10.68,10.68h-3.84c-0.87-1.83-2.74-3.1-4.9-3.1c-3,0-5.43,2.43-5.43,5.43
				c0,3,2.43,5.43,5.43,5.43c2.17,0,4.03-1.27,4.9-3.1h5.77l13.41-13.41v-2.47c1.83-0.87,3.1-2.74,3.1-4.9c0-3-2.43-5.43-5.43-5.43
				C247.18,462.54,244.75,464.97,244.75,467.97z"/>
		</g>
	</g>
	<g>
		<g>
			<g>
				<path class="st64" d="M387.57,456.68h21.44l50.49,124.01h-26.93l-8.5-23.56h-51.73l-8.5,23.56H336.9L387.57,456.68z
					 M415.92,535.69l-13.29-33.84c-1.77-4.61-3.37-9.39-4.43-14.17c-1.24,4.78-2.66,9.75-4.43,14.17l-13.29,33.84H415.92z"/>
				<path class="st64" d="M466.76,488.57h23.21v17.54c3.19-13.29,12.58-20.55,28.52-19.66v22.5h-3.37
					c-13.82,0-24.45,9.21-24.45,24.63v47.13h-23.92V488.57z"/>
				<path class="st64" d="M538.86,552.17v-43.23h-12.93v-20.37h12.93v-18.6l23.92-2.48v21.08h19.49v20.37h-19.49v41.99
					c0,5.85,2.83,8.5,7.44,8.5h9.92v21.26h-13.11C548.78,580.69,538.86,572.19,538.86,552.17z"/>
				<path class="st64" d="M628.15,456.68h24.8v124.01h-24.8V456.68z"/>
				<g>
					<path class="st64" d="M667.25,532.33c0-26.75,20.55-48.19,48.72-48.37c16.83-0.18,30.47,6.38,38.27,17.19l-18.42,15.06
						c-4.25-6.38-11.34-10.45-19.49-10.45c-15.24,0-25.16,12.22-25.16,26.58s10.45,26.58,25.69,26.58c9.21,0,15.24-4.61,20.02-10.98
						l17.36,15.06c-8.68,11.16-21.44,17.72-39.51,17.72C688.33,580.69,667.25,559.08,667.25,532.33z"/>
					<path class="st64" d="M801.25,484.13c-21.2,0-37.99,12.04-45.22,29.12h27.46c1.05-1.09,2.19-2.08,3.45-2.95
						c0.42-0.28,0.84-0.56,1.27-0.82c0.34-0.22,0.69-0.42,1.05-0.6c0.7-0.39,1.43-0.74,2.18-1.05c0.36-0.17,0.74-0.31,1.13-0.43
						c0.38-0.15,0.77-0.28,1.17-0.39c0.39-0.13,0.78-0.24,1.19-0.32c0.29-0.07,0.6-0.14,0.91-0.21c0.62-0.14,1.23-0.24,1.86-0.32
						c0.32-0.03,0.63-0.07,0.95-0.1c0.39-0.04,0.78-0.07,1.17-0.08c0.46-0.03,0.94-0.04,1.41-0.04c0.9,0,1.78,0.04,2.64,0.13
						c0.06,0.01,0.11,0.01,0.15,0.01c0.52,0.06,1.02,0.13,1.51,0.21c0.5,0.08,0.99,0.17,1.48,0.29c6.03,1.33,10.92,4.78,14.25,9.47
						c0.29,0.39,0.56,0.8,0.83,1.22c0.26,0.41,0.52,0.82,0.75,1.26c0.22,0.36,0.42,0.74,0.59,1.12c0.21,0.38,0.38,0.76,0.54,1.15
						c0.14,0.31,0.27,0.62,0.39,0.92c0.1,0.24,0.18,0.48,0.27,0.71c0.14,0.36,0.25,0.71,0.38,1.08v0.01
						c0.13,0.41,0.25,0.8,0.35,1.22c0.11,0.41,0.22,0.82,0.31,1.24c0.18,0.78,0.32,1.57,0.43,2.38c0.18,1.34,0.28,2.73,0.28,4.15
						c0,1.44-0.1,2.82-0.28,4.18c-1.26,8.99-6.52,16.58-14.51,20.12c-0.31,0.13-0.62,0.25-0.94,0.38c-0.49,0.2-0.98,0.36-1.48,0.53
						c-0.28,0.08-0.56,0.17-0.85,0.25c-0.95,0.27-1.94,0.48-2.95,0.63c-0.43,0.07-0.89,0.13-1.34,0.17c-0.91,0.1-1.85,0.14-2.8,0.14
						c-1.33,0-2.63-0.1-3.9-0.28c-0.35-0.04-0.71-0.1-1.06-0.18c-0.49-0.08-0.96-0.18-1.44-0.29c-0.31-0.08-0.59-0.15-0.88-0.24
						c-0.53-0.15-1.05-0.32-1.55-0.5c-0.25-0.08-0.49-0.18-0.73-0.28c-0.18-0.07-0.36-0.14-0.53-0.21c-0.22-0.1-0.43-0.18-0.64-0.29
						c-0.29-0.13-0.57-0.27-0.85-0.42c-0.34-0.17-0.67-0.35-0.99-0.53c-0.36-0.21-0.71-0.42-1.06-0.64
						c-0.45-0.29-0.9-0.59-1.33-0.92c-1.03-0.76-2-1.59-2.89-2.53h-27.4c7.19,17.13,24.02,29.12,45.27,29.12
						c28.52,0,49.08-21.62,49.08-48.2C850.33,505.93,829.78,484.13,801.25,484.13z"/>
					<path class="st64" d="M826.13,536.68c-1.24,9.37-6.68,16.71-14.51,20.12C819.61,553.26,824.87,545.67,826.13,536.68z"/>
					<path class="st64" d="M813.82,532.5c0,6.88-3.89,13.81-12.57,13.81c-5.86,0-9.54-3.16-11.3-7.33h-61.63
						c-1.76,4.17-5.44,7.33-11.3,7.33c-8.68,0-12.57-6.93-12.57-13.81c0-6.73,3.93-13.98,12.57-13.98c5.73,0,9.4,3.2,11.2,7.33
						h61.83c1.8-4.12,5.47-7.33,11.2-7.33C809.89,518.52,813.82,525.77,813.82,532.5z"/>
				</g>
				<path class="st64" d="M864.62,488.57h23.56v13.46c4.78-10.27,14-15.59,28.17-15.59c19.84,0,35.08,14.7,35.08,37.91v56.34h-23.92
					V530.2c0-15.94-7.97-22.85-19.84-22.85c-10.1,0-19.13,6.91-19.13,22.85v50.49h-23.92V488.57z"/>
			</g>
			<g>
				<g>
					<path class="st64" d="M395.81,641.63v-30.04h4.23v30.04H395.81z"/>
					<path class="st64" d="M408.71,641.63v-17.95h-2.15v-4.3h4.45v3.41h1.56c0.77-1.24,1.82-2.18,3.15-2.84
						c1.33-0.65,2.9-0.98,4.71-0.98c2.87,0,5.13,0.82,6.79,2.47c1.66,1.64,2.48,3.84,2.48,6.58v13.61h-4.15v-12.9
						c0-2-0.54-3.52-1.61-4.56s-2.65-1.56-4.73-1.56c-2.05,0-3.62,0.52-4.71,1.56s-1.63,2.56-1.63,4.56v12.9H408.71z"/>
					<path class="st64" d="M442.01,641.63c-1.19,0-2.11-0.3-2.76-0.91c-0.66-0.61-0.98-1.51-0.98-2.73v-15.43h-4.15v-3.19h4.19
						v-6.67h4.08v6.67h5.82v3.19h-5.78v15.8h6.38v3.26H442.01z"/>
					<path class="st64" d="M463.7,642.07c-2.32,0-4.34-0.48-6.04-1.43c-1.71-0.95-3.02-2.3-3.95-4.06
						c-0.93-1.75-1.39-3.81-1.39-6.16s0.46-4.38,1.39-6.1c0.93-1.72,2.23-3.05,3.91-3.99c1.68-0.94,3.65-1.41,5.9-1.41
						c2.15,0,4.01,0.43,5.58,1.3c1.57,0.87,2.79,2.09,3.65,3.67c0.87,1.58,1.3,3.46,1.3,5.64v1.67h-17.72
						c0.12,2.32,0.83,4.13,2.13,5.43s3.03,1.95,5.21,1.95c1.51,0,2.78-0.31,3.82-0.95c1.04-0.63,1.75-1.56,2.15-2.8h4.23
						c-0.54,2.3-1.71,4.08-3.5,5.34C468.56,641.44,466.34,642.07,463.7,642.07z M456.47,628.17h13.57c-0.2-1.83-0.87-3.25-2.02-4.26
						c-1.15-1.01-2.66-1.52-4.54-1.52c-1.85,0-3.4,0.51-4.63,1.52C457.61,624.92,456.81,626.34,456.47,628.17z"/>
					<path class="st64" d="M479.9,641.63v-31.15h4.15v31.15H479.9z"/>
					<path class="st64" d="M491.4,641.63v-31.15h4.15v31.15H491.4z"/>
					<path class="st64" d="M504.97,616.34c-0.69,0-1.29-0.25-1.78-0.74c-0.49-0.49-0.74-1.09-0.74-1.78c0-0.69,0.25-1.29,0.74-1.78
						c0.49-0.49,1.09-0.74,1.78-0.74s1.29,0.25,1.78,0.74c0.49,0.49,0.74,1.09,0.74,1.78c0,0.69-0.25,1.29-0.74,1.78
						C506.25,616.09,505.66,616.34,504.97,616.34z M502.89,641.63v-22.25h4.15v22.25H502.89z"/>
					<path class="st64" d="M523.77,650.97c-3.09,0-5.6-0.64-7.53-1.93s-3.07-3.07-3.41-5.34h4.38c0.67,2.52,2.83,3.78,6.49,3.78
						c2.32,0,4.1-0.55,5.34-1.65c1.24-1.1,1.85-2.66,1.85-4.69v-3.6h-0.19c-0.59,1.31-1.53,2.32-2.82,3.02
						c-1.29,0.7-2.81,1.06-4.56,1.06c-2.1,0-3.93-0.46-5.49-1.39c-1.56-0.93-2.76-2.24-3.6-3.93c-0.84-1.69-1.26-3.7-1.26-6.03
						c0-3.49,0.94-6.25,2.82-8.29c1.88-2.04,4.45-3.06,7.71-3.06c1.78,0,3.31,0.33,4.6,0.98c1.29,0.66,2.3,1.61,3.04,2.87h1.56
						v-3.41h4.45v4.3h-2.15v17.65c0,3.04-0.98,5.41-2.95,7.1C530.09,650.12,527.33,650.97,523.77,650.97z M524.33,637.99
						c1.95,0,3.53-0.57,4.73-1.71c1.2-1.14,1.8-2.64,1.8-4.52v-2.97c0-1.88-0.6-3.39-1.8-4.52c-1.2-1.14-2.77-1.71-4.73-1.71
						c-2.25,0-4.01,0.67-5.28,2.02c-1.27,1.35-1.91,3.24-1.91,5.69s0.64,4.34,1.91,5.69C520.31,637.32,522.08,637.99,524.33,637.99z
						"/>
					<path class="st64" d="M552.99,642.07c-2.32,0-4.34-0.48-6.04-1.43c-1.71-0.95-3.02-2.3-3.95-4.06
						c-0.93-1.75-1.39-3.81-1.39-6.16s0.46-4.38,1.39-6.1c0.93-1.72,2.23-3.05,3.91-3.99c1.68-0.94,3.65-1.41,5.9-1.41
						c2.15,0,4.01,0.43,5.58,1.3c1.57,0.87,2.79,2.09,3.65,3.67c0.87,1.58,1.3,3.46,1.3,5.64v1.67h-17.72
						c0.12,2.32,0.84,4.13,2.13,5.43c1.3,1.3,3.04,1.95,5.21,1.95c1.51,0,2.78-0.31,3.82-0.95c1.04-0.63,1.75-1.56,2.15-2.8h4.23
						c-0.54,2.3-1.71,4.08-3.5,5.34S555.63,642.07,552.99,642.07z M545.76,628.17h13.57c-0.2-1.83-0.87-3.25-2.02-4.26
						c-1.15-1.01-2.66-1.52-4.54-1.52c-1.86,0-3.4,0.51-4.64,1.52C546.89,624.92,546.1,626.34,545.76,628.17z"/>
					<path class="st64" d="M569.93,641.63v-17.95h-2.15v-4.3h4.45v3.41h1.56c0.77-1.24,1.82-2.18,3.15-2.84
						c1.33-0.65,2.9-0.98,4.71-0.98c2.87,0,5.13,0.82,6.79,2.47c1.66,1.64,2.48,3.84,2.48,6.58v13.61h-4.15v-12.9
						c0-2-0.54-3.52-1.61-4.56c-1.08-1.04-2.65-1.56-4.73-1.56c-2.05,0-3.62,0.52-4.71,1.56s-1.63,2.56-1.63,4.56v12.9H569.93z"/>
					<path class="st64" d="M607.61,642.07c-2.25,0-4.22-0.48-5.9-1.43c-1.68-0.95-2.98-2.29-3.91-4.02
						c-0.93-1.73-1.39-3.77-1.39-6.12s0.46-4.39,1.37-6.12c0.92-1.73,2.21-3.07,3.89-4.02c1.68-0.95,3.66-1.43,5.93-1.43
						c2.72,0,4.99,0.67,6.8,2.02c1.82,1.35,3.01,3.28,3.58,5.8h-4.19c-0.42-1.43-1.14-2.49-2.17-3.17
						c-1.03-0.68-2.37-1.02-4.02-1.02c-2.2,0-3.92,0.69-5.17,2.08c-1.25,1.38-1.87,3.34-1.87,5.86c0,2.5,0.62,4.44,1.87,5.84
						c1.25,1.4,2.97,2.1,5.17,2.1c3.44,0,5.55-1.52,6.34-4.56h4.19c-0.54,2.65-1.73,4.67-3.56,6.08
						C612.75,641.37,610.43,642.07,607.61,642.07z"/>
					<path class="st64" d="M632.79,642.07c-2.32,0-4.34-0.48-6.04-1.43c-1.71-0.95-3.02-2.3-3.95-4.06
						c-0.93-1.75-1.39-3.81-1.39-6.16s0.46-4.38,1.39-6.1c0.93-1.72,2.23-3.05,3.91-3.99s3.65-1.41,5.9-1.41
						c2.15,0,4.01,0.43,5.58,1.3c1.57,0.87,2.79,2.09,3.65,3.67c0.87,1.58,1.3,3.46,1.3,5.64v1.67h-17.72
						c0.12,2.32,0.83,4.13,2.13,5.43s3.03,1.95,5.21,1.95c1.51,0,2.78-0.31,3.82-0.95c1.04-0.63,1.75-1.56,2.15-2.8h4.23
						c-0.54,2.3-1.71,4.08-3.5,5.34C637.65,641.44,635.43,642.07,632.79,642.07z M625.55,628.17h13.57
						c-0.2-1.83-0.87-3.25-2.02-4.26c-1.15-1.01-2.66-1.52-4.54-1.52c-1.85,0-3.4,0.51-4.64,1.52
						C626.69,624.92,625.9,626.34,625.55,628.17z"/>
					<path class="st64" d="M662.93,616.34c-0.69,0-1.29-0.25-1.78-0.74c-0.49-0.49-0.74-1.09-0.74-1.78c0-0.69,0.25-1.29,0.74-1.78
						s1.09-0.74,1.78-0.74c0.69,0,1.29,0.25,1.78,0.74s0.74,1.09,0.74,1.78c0,0.69-0.25,1.29-0.74,1.78
						C664.22,616.09,663.62,616.34,662.93,616.34z M660.86,641.63v-22.25h4.15v22.25H660.86z"/>
					<path class="st64" d="M673.09,641.63v-17.95h-2.15v-4.3h4.45v3.41h1.56c0.77-1.24,1.82-2.18,3.15-2.84
						c1.33-0.65,2.9-0.98,4.71-0.98c2.87,0,5.13,0.82,6.79,2.47c1.66,1.64,2.48,3.84,2.48,6.58v13.61h-4.15v-12.9
						c0-2-0.54-3.52-1.61-4.56c-1.08-1.04-2.65-1.56-4.73-1.56c-2.05,0-3.62,0.52-4.71,1.56s-1.63,2.56-1.63,4.56v12.9H673.09z"/>
					<path class="st64" d="M726.67,642.11c-3.04,0-5.69-0.64-7.95-1.91c-2.26-1.27-4.01-3.07-5.25-5.4
						c-1.24-2.32-1.85-5.05-1.85-8.19c0-3.14,0.62-5.86,1.85-8.18c1.24-2.31,2.99-4.1,5.25-5.38s4.91-1.91,7.95-1.91
						c2.32,0,4.38,0.38,6.17,1.13s3.27,1.85,4.43,3.3c1.16,1.45,1.95,3.2,2.37,5.25h-4.3c-0.44-1.9-1.42-3.38-2.91-4.41
						c-1.5-1.04-3.42-1.56-5.77-1.56c-3.39,0-6.04,1.05-7.97,3.15c-1.93,2.1-2.89,4.97-2.89,8.6c0,3.66,0.96,6.53,2.89,8.62
						c1.93,2.09,4.58,3.13,7.97,3.13c2.35,0,4.27-0.51,5.77-1.54c1.5-1.03,2.47-2.49,2.91-4.39h4.3c-0.42,2.03-1.21,3.76-2.37,5.21
						c-1.16,1.45-2.64,2.55-4.43,3.32C731.05,641.73,729,642.11,726.67,642.11z"/>
					<path class="st64" d="M745.81,641.63v-17.95h-2.15v-4.3h4.45v4.15h1.56c0.62-1.36,1.58-2.42,2.87-3.19
						c1.3-0.77,2.82-1.15,4.58-1.15h1.82v3.56h-2.04c-2.23,0-3.94,0.66-5.15,1.97c-1.21,1.31-1.82,3.08-1.82,5.3v11.61H745.81z"/>
					<path class="st64" d="M773.84,642.07c-2.32,0-4.34-0.48-6.04-1.43c-1.71-0.95-3.02-2.3-3.95-4.06
						c-0.93-1.75-1.39-3.81-1.39-6.16s0.46-4.38,1.39-6.1c0.93-1.72,2.23-3.05,3.91-3.99s3.65-1.41,5.9-1.41
						c2.15,0,4.01,0.43,5.58,1.3c1.57,0.87,2.79,2.09,3.65,3.67c0.87,1.58,1.3,3.46,1.3,5.64v1.67h-17.72
						c0.12,2.32,0.83,4.13,2.13,5.43s3.03,1.95,5.21,1.95c1.51,0,2.78-0.31,3.82-0.95c1.04-0.63,1.75-1.56,2.15-2.8H784
						c-0.54,2.3-1.71,4.08-3.5,5.34C778.7,641.44,776.48,642.07,773.84,642.07z M766.61,628.17h13.57c-0.2-1.83-0.87-3.25-2.02-4.26
						c-1.15-1.01-2.66-1.52-4.54-1.52c-1.85,0-3.4,0.51-4.64,1.52C767.75,624.92,766.95,626.34,766.61,628.17z"/>
					<path class="st64" d="M796.42,642.03c-2.52,0-4.5-0.62-5.95-1.87c-1.45-1.25-2.17-2.89-2.17-4.91c0-2.13,0.72-3.78,2.15-4.95
						c1.43-1.17,3.5-1.76,6.19-1.76h7.6v-1c0-3.44-1.89-5.15-5.67-5.15c-3.09,0-4.96,1.16-5.6,3.49h-4.19
						c0.37-2.2,1.43-3.91,3.17-5.12c1.74-1.21,3.97-1.82,6.69-1.82c3.09,0,5.46,0.73,7.1,2.19c1.64,1.46,2.47,3.56,2.47,6.3v9.9h2
						v4.3h-4.45v-3.41h-1.56c-0.77,1.19-1.82,2.12-3.15,2.8C799.72,641.69,798.18,642.03,796.42,642.03z M796.98,638.7
						c1.33,0,2.56-0.27,3.67-0.82c1.11-0.54,1.99-1.29,2.63-2.22c0.64-0.94,0.96-1.97,0.96-3.08v-1h-7.34
						c-3.12,0-4.67,1.16-4.67,3.49c0,1.11,0.42,2,1.26,2.65C794.33,638.37,795.49,638.7,796.98,638.7z"/>
					<path class="st64" d="M821.49,641.63c-1.19,0-2.11-0.3-2.76-0.91s-0.98-1.51-0.98-2.73v-15.43h-4.15v-3.19h4.19v-6.67h4.08
						v6.67h5.82v3.19h-5.78v15.8h6.38v3.26H821.49z"/>
					<path class="st64" d="M835.36,616.34c-0.69,0-1.29-0.25-1.78-0.74c-0.49-0.49-0.74-1.09-0.74-1.78c0-0.69,0.25-1.29,0.74-1.78
						s1.09-0.74,1.78-0.74c0.69,0,1.29,0.25,1.78,0.74s0.74,1.09,0.74,1.78c0,0.69-0.25,1.29-0.74,1.78
						C836.64,616.09,836.05,616.34,835.36,616.34z M833.28,641.63v-22.25h4.15v22.25H833.28z"/>
					<path class="st64" d="M854.71,642.07c-2.3,0-4.31-0.48-6.03-1.43c-1.72-0.95-3.05-2.29-3.99-4.02s-1.41-3.77-1.41-6.12
						s0.47-4.39,1.41-6.12s2.27-3.07,3.99-4.02c1.72-0.95,3.73-1.43,6.03-1.43c2.37,0,4.41,0.47,6.1,1.41c1.69,0.94,3,2.27,3.93,4
						c0.93,1.73,1.39,3.78,1.39,6.16c0,2.35-0.46,4.39-1.39,6.14c-0.93,1.74-2.24,3.08-3.95,4.02
						C859.09,641.6,857.06,642.07,854.71,642.07z M854.71,638.44c2.3,0,4.08-0.7,5.36-2.1c1.27-1.4,1.91-3.34,1.91-5.84
						c0-2.52-0.64-4.47-1.91-5.86s-3.06-2.08-5.36-2.08c-2.27,0-4.05,0.7-5.34,2.1c-1.29,1.4-1.93,3.34-1.93,5.84
						s0.64,4.44,1.93,5.84C850.66,637.74,852.44,638.44,854.71,638.44z"/>
					<path class="st64" d="M872.73,641.63v-17.95h-2.15v-4.3h4.45v3.41h1.56c0.77-1.24,1.82-2.18,3.15-2.84
						c1.33-0.65,2.9-0.98,4.71-0.98c2.87,0,5.13,0.82,6.79,2.47c1.66,1.64,2.48,3.84,2.48,6.58v13.61h-4.15v-12.9
						c0-2-0.54-3.52-1.61-4.56c-1.08-1.04-2.65-1.56-4.73-1.56c-2.05,0-3.62,0.52-4.71,1.56s-1.63,2.56-1.63,4.56v12.9H872.73z"/>
				</g>
			</g>
		</g>
	</g>
</g>
</svg>
