<?xml version="1.0" encoding="utf-8"?>
<!-- Generator: Adobe Illustrator 28.0.0, SVG Export Plug-In . SVG Version: 6.00 Build 0)  -->
<svg version="1.1" id="Layer_1" xmlns="http://www.w3.org/2000/svg" xmlns:xlink="http://www.w3.org/1999/xlink" x="0px" y="0px"
	 viewBox="0 0 1080 1080" style="enable-background:new 0 0 1080 1080;" xml:space="preserve">
<style type="text/css">
	.st0{fill:#0D0D0D;}
	.st1{fill:#282B30;}
	.st2{fill:url(#SVGID_1_);}
	.st3{fill:url(#SVGID_00000007426478372149851490000017620945974600996007_);}
	.st4{fill:url(#SVGID_00000091736679210061153700000008057526654639939981_);}
	.st5{fill:url(#SVGID_00000036210747620209261250000016374011085948626060_);}
	.st6{fill:url(#SVGID_00000085249026026612788090000014508308882382246043_);}
	.st7{fill:url(#SVGID_00000003785565580591211280000007213003942379426971_);}
	.st8{fill:url(#SVGID_00000147930889436639806090000017518550362484666291_);}
	.st9{fill:#96F1D2;}
	.st10{fill:#C281D5;}
	.st11{fill:#F9FAEA;}
	.st12{fill:#FFFFFF;}
	.st13{fill:url(#SVGID_00000090269753617385896560000018084285078981496705_);}
	.st14{fill:url(#SVGID_00000141436724067907857020000017524554982944189623_);}
	.st15{fill:url(#SVGID_00000067958393013533504300000013269444530661203587_);}
	.st16{fill:url(#SVGID_00000172434366349467278380000002448729549934311101_);}
	.st17{fill:url(#SVGID_00000047044243472745648740000003975685390425031613_);}
	.st18{fill:url(#SVGID_00000160910760638363656890000012690833026978481290_);}
	.st19{fill:url(#SVGID_00000145761190504058464170000003625362781962850466_);}
	.st20{fill:url(#SVGID_00000116941358430393906290000009813589067210454707_);}
	.st21{fill:url(#SVGID_00000034791886874677657460000008557192863122636949_);}
	.st22{fill:url(#SVGID_00000062885537713377067900000003912435089742509467_);}
	.st23{fill:url(#SVGID_00000006690996670654776580000004894195079438475444_);}
	.st24{fill:url(#SVGID_00000080921841526463298800000009537653583392976260_);}
	.st25{fill:url(#SVGID_00000125561778447701988400000011790625313147823235_);}
	.st26{fill:url(#SVGID_00000049930410006700553870000011866616508459637906_);}
	.st27{fill:url(#SVGID_00000075134244394178322010000004313140281528845463_);}
	.st28{fill:url(#SVGID_00000018210618828898618280000012878189649338689443_);}
	.st29{fill:url(#SVGID_00000149347737911659369460000010379540952823406215_);}
	.st30{fill:url(#SVGID_00000119820827685062251080000000148109124163150495_);}
	.st31{fill:url(#SVGID_00000145760829930705165260000008447102182383063708_);}
	.st32{fill:url(#SVGID_00000129167718934620639150000008345338174067706047_);}
	.st33{fill:url(#SVGID_00000078012873917422687010000001388768763096587397_);}
	.st34{fill:url(#SVGID_00000111191561302355787640000003938490756674150573_);}
	.st35{fill:url(#SVGID_00000005950232560945684730000014971826988407301294_);}
	.st36{fill:url(#SVGID_00000181773721214669788190000012048703452480800699_);}
	.st37{fill:url(#SVGID_00000065051953988770741260000000903728035236378521_);}
	.st38{fill:url(#SVGID_00000133498735134420842830000008670091931695645604_);}
	.st39{fill:url(#SVGID_00000105401541071132403040000011393234934269386137_);}
	.st40{fill:url(#SVGID_00000045616672371016943200000003286872726892022150_);}
	.st41{fill:url(#SVGID_00000181789776599103585990000011311068027938705568_);}
	.st42{fill:url(#SVGID_00000012457915924696297430000013513964970806814878_);}
	.st43{fill:url(#SVGID_00000037680344796445388300000005676118338789759152_);}
	.st44{fill:url(#SVGID_00000048486279181361639370000010714256975146981783_);}
	.st45{fill:url(#SVGID_00000122693087440200781840000017154694945624151428_);}
	.st46{fill:url(#SVGID_00000165201903497328736160000004029864834142700424_);}
	.st47{fill:url(#SVGID_00000118376735866353608950000011778107039587206550_);}
	.st48{fill:url(#SVGID_00000080886791325286555730000003241048613885265800_);}
	.st49{fill:url(#SVGID_00000054962896677624113230000000885541930215763073_);}
	.st50{fill:url(#SVGID_00000016787309834954662160000007999403810509317534_);}
	.st51{fill:url(#SVGID_00000116234712563366222670000002128557218642706833_);}
	.st52{fill:url(#SVGID_00000140012722135726114650000018075480089558258073_);}
	.st53{fill:url(#SVGID_00000044139761390265211680000017493362170230782088_);}
	.st54{fill:url(#SVGID_00000089569535326643390590000004631592177381194123_);}
	.st55{fill:url(#SVGID_00000076573629084715001000000011434883815187169687_);}
	.st56{fill:url(#SVGID_00000017474348348945880800000002642112616469992589_);}
	.st57{fill:url(#SVGID_00000084493309265338246210000011926997885656955554_);}
	.st58{fill:url(#SVGID_00000118371513156732680440000002013126959267644082_);}
	.st59{fill:url(#SVGID_00000070813403163023047190000003974770653751547314_);}
	.st60{fill:url(#SVGID_00000063612036728132628850000012235655156368467892_);}
	.st61{fill:url(#SVGID_00000181799140158233668110000008136716443395246263_);}
	.st62{fill:url(#SVGID_00000103974483225381709440000010939388808727159451_);}
	.st63{fill:url(#SVGID_00000043430534318446062360000016801083841491994019_);}
	.st64{fill:url(#SVGID_00000124130003769850113170000001723265565262322311_);}
	.st65{fill:url(#SVGID_00000183223823701256139540000017842327642653366962_);}
	.st66{fill:url(#SVGID_00000096766346541184912960000005331997485749525681_);}
	.st67{fill:url(#SVGID_00000009563564907541766890000007423370656628740776_);}
	.st68{fill:#333333;}
	.st69{fill:url(#SVGID_00000069396725074408615340000009114088296587005064_);}
	.st70{fill:url(#SVGID_00000007422570629970420380000005516693673942656919_);}
	.st71{fill:url(#SVGID_00000070834950793329323570000002912429863911020988_);}
	.st72{fill:url(#SVGID_00000013892387789468318590000006124651228306670773_);}
	.st73{fill:url(#SVGID_00000082368812023517286680000003715935508461003699_);}
	.st74{fill:url(#SVGID_00000111884947014859261460000008103353977603326637_);}
	.st75{fill:url(#SVGID_00000054266473055085856690000015205769179347412643_);}
	.st76{fill:url(#SVGID_00000129896089891117397230000008948144236468557483_);}
	.st77{fill:url(#SVGID_00000136391308850881989440000010005572818285425584_);}
	.st78{fill:url(#SVGID_00000182521051248493489940000004908251160321175199_);}
	.st79{fill:url(#SVGID_00000181063067185968797090000011209575106071655086_);}
	.st80{fill:url(#SVGID_00000034780867601166945220000001197940617269266081_);}
	.st81{fill:url(#SVGID_00000178164405516954526530000001386801796614146199_);}
	.st82{fill:url(#SVGID_00000107572461981288508040000008154617547217101970_);}
	.st83{fill:url(#SVGID_00000162327908954546269310000004067195473643006091_);}
	.st84{fill:url(#SVGID_00000085225955385072895140000002710373330620897411_);}
	.st85{fill:url(#SVGID_00000117675626768450830720000012422211073379513732_);}
	.st86{fill:url(#SVGID_00000107557178184646033210000011927075528609587119_);}
	.st87{fill:url(#SVGID_00000124866828420849502810000009551475366732437930_);}
	.st88{fill:#F2F2F2;}
	.st89{fill:url(#SVGID_00000060022469766429980080000004403487446030575796_);}
	.st90{fill:none;stroke:#333333;stroke-miterlimit:10;}
	.st91{fill:#6166A6;}
	.st92{fill:#FA889E;}
	.st93{fill:none;stroke:#000000;stroke-width:2;stroke-linecap:round;stroke-linejoin:round;}
</style>
<g>
	<rect x="165" y="165" width="750" height="750"/>
	<g>
		<g>
			<path class="st12" d="M458.9,702.12c11.31,0,21.3,0,32.29,0c0-16.82,0.51-33.27-0.34-49.64c-0.23-4.39-3.89-9.27-7.22-12.71
				c-16.9-17.44-34.43-34.28-51.18-51.86c-3.25-3.41-5.58-9.14-5.69-13.86c-0.56-24.61,0.06-49.25-0.45-73.87
				c-0.16-7.47,1.81-11,9.06-13.98c30.83-12.66,46.34-45.7,37.15-77.28c-8.85-30.41-40.2-50.76-70.96-46.06
				c-33.3,5.09-57.34,33.04-55.89,66.33c1.2,27.54,15.41,46.95,40.7,57.6c6.04,2.54,7.95,5.28,7.88,11.63
				c-0.34,28.67-0.65,57.36,0.23,86.01c0.2,6.62,3.57,14.51,8.1,19.39c16.49,17.81,34.25,34.44,51.09,51.94
				c2.86,2.98,4.76,7.97,5.03,12.15C459.36,678.97,458.9,690.09,458.9,702.12z M410.31,394.99c17.47,0.02,32.29,14.98,32.12,32.41
				c-0.17,17.06-14.6,31.57-31.68,31.84c-17.44,0.28-32.47-14.43-32.61-31.91C378.01,409.89,392.84,394.98,410.31,394.99z"/>
			<path class="st12" d="M588.53,702.11c11.32,0,21.31,0,32.41,0c0-10.75,0.42-21.13-0.15-31.45c-0.38-6.97,1.7-11.94,6.75-16.81
				c16.52-15.92,32.34-32.55,48.9-48.43c6.89-6.61,9.63-13.81,9.47-23.3c-0.45-27.32,0.14-54.65-0.36-81.97
				c-0.14-7.49,1.85-10.99,9.08-13.97c30.83-12.67,46.33-45.71,37.13-77.29c-8.86-30.41-40.22-50.75-70.97-46.04
				c-33.3,5.11-57.33,33.05-55.87,66.35c1.2,27.54,15.43,46.95,40.71,57.59c6.05,2.55,7.95,5.3,7.86,11.64
				c-0.36,25.29,0.15,50.6-0.42,75.89c-0.11,4.69-2.6,10.36-5.87,13.79c-16.52,17.33-34.09,33.68-50.32,51.27
				c-4.51,4.89-7.41,12.71-7.99,19.45C587.69,672.87,588.53,687.06,588.53,702.11z M701.69,427.42
				c-0.18,17.46-15.28,32.16-32.7,31.83c-17.1-0.33-31.46-14.84-31.58-31.92c-0.13-17.45,14.71-32.36,32.18-32.33
				C687.06,395.02,701.87,409.98,701.69,427.42z"/>
			<path class="st12" d="M524.43,702.16c10.48,0,20.47,0,31.21,0c0.17-3.56,0.46-6.82,0.46-10.07c0.04-26.64,0.19-53.28-0.11-79.92
				c-0.07-6.1,1.17-9.3,7.54-11.84c30.02-11.96,46.18-42.05,39.77-72.43c-6.64-31.47-33.53-52.89-65.42-52.1
				c-30.9,0.76-56.66,23.59-62.09,55.04c-4.92,28.49,11.41,57.84,39.56,69.01c7.21,2.86,8.53,6.55,8.47,13.3
				c-0.26,28.66-0.07,57.33-0.03,85.99C523.81,699.77,524.07,700.42,524.43,702.16z M540.01,508.4
				c17.47,0.06,32.26,15.05,32.05,32.48c-0.21,17.07-14.67,31.54-31.74,31.78c-17.44,0.24-32.45-14.5-32.54-31.98
				C507.68,523.22,522.55,508.34,540.01,508.4z"/>
		</g>
		<g>
			<path class="st12" d="M458.9,709.66v-23.24l162.04,0v23.24c0,4.5-3.65,8.15-8.15,8.15l-145.73,0
				C462.55,717.81,458.9,714.16,458.9,709.66z"/>
		</g>
	</g>
</g>
</svg>
