<?xml version="1.0" encoding="utf-8"?>
<!-- Generator: Adobe Illustrator 28.0.0, SVG Export Plug-In . SVG Version: 6.00 Build 0)  -->
<svg version="1.1" id="Layer_1" xmlns="http://www.w3.org/2000/svg" xmlns:xlink="http://www.w3.org/1999/xlink" x="0px" y="0px"
	 viewBox="0 0 1080 1080" style="enable-background:new 0 0 1080 1080;" xml:space="preserve">
<style type="text/css">
	.st0{fill:url(#SVGID_1_);}
	.st1{fill:url(#SVGID_00000002358024477325472700000011079416817617747351_);}
	.st2{fill:url(#SVGID_00000115480764789662799750000002409683097799826819_);}
	.st3{fill:url(#SVGID_00000148621548593789109610000001243836010540030124_);}
	.st4{fill:url(#SVGID_00000078726892736217417760000007690012668817608582_);}
	.st5{fill:url(#SVGID_00000130618120394440195410000017586529046084783248_);}
	.st6{fill:url(#SVGID_00000032644215300681624650000004912086049449874321_);}
	.st7{fill:url(#SVGID_00000097462916428698561630000016132727517775981729_);}
	.st8{fill:url(#SVGID_00000178891433347994897230000002240052585886357918_);}
	.st9{fill:url(#SVGID_00000031925963402970416050000006393284064000496262_);}
	.st10{fill:url(#SVGID_00000165951671049392779510000014892091556171280517_);}
	.st11{fill:url(#SVGID_00000143575182840444176270000015178445058855097755_);}
	.st12{fill:url(#SVGID_00000021086544189034862290000006714805433981475228_);}
	.st13{fill:url(#SVGID_00000074410119958686874250000011705716844337165214_);}
	.st14{fill:url(#SVGID_00000052801419791994121900000010609934639529683089_);}
	.st15{fill:url(#SVGID_00000062192513733659997440000000319350755599007389_);}
	.st16{fill:url(#SVGID_00000050662339962179623070000002275564366696128903_);}
	.st17{fill:url(#SVGID_00000052794580131731225900000007248088407137051049_);}
	.st18{fill:url(#SVGID_00000171689500443011120930000000170462213179792305_);}
	.st19{fill:url(#SVGID_00000150808618573140798080000005183694533002933164_);}
	.st20{fill:url(#SVGID_00000118360637581234909500000015138180041743181484_);}
	.st21{fill:url(#SVGID_00000011006002687652195310000006334029806056180611_);}
	.st22{fill:url(#SVGID_00000044858608480693650840000009215082913153105594_);}
	.st23{fill:url(#SVGID_00000165215227736689718880000003713070459276965257_);}
	.st24{fill:url(#SVGID_00000061464849882604116670000003904126108884984708_);}
	.st25{fill:url(#SVGID_00000089550354671805481810000014226701671350946201_);}
	.st26{fill:url(#SVGID_00000019651451535381775500000008850794423445035692_);}
	.st27{fill:url(#SVGID_00000127034063494522305460000007099878767312641446_);}
	.st28{fill:url(#SVGID_00000003066014701901677690000003501081524442098582_);}
	.st29{fill:url(#SVGID_00000070115290892246567200000012825865973606180030_);}
	.st30{fill:url(#SVGID_00000104692174397550815280000012480397865382031259_);}
	.st31{fill:url(#SVGID_00000137820669847779076820000011078100642408106923_);}
	.st32{fill:url(#SVGID_00000116952582798730676910000010029934428746412181_);}
	.st33{fill:url(#SVGID_00000012465284765148501190000015914452315885622415_);}
	.st34{fill:#333333;}
</style>
<g>
	<g>
		<linearGradient id="SVGID_1_" gradientUnits="userSpaceOnUse" x1="333.0962" y1="556.982" x2="776.8353" y2="104.6342">
			<stop  offset="5.327789e-09" style="stop-color:#FFC892"/>
			<stop  offset="1" style="stop-color:#FA839F"/>
		</linearGradient>
		<path class="st0" d="M485.87,613.92c-24.85,15.47-48.84,33.27-68.65,55.35c-15.59-23.27-30.93-46.95-44.39-71.53
			c-14.84-27.09-25.31-57.52-30.13-88.68c4.73,5.31,9.83,10.31,15.22,14.96c2.06,1.63,7.63,6.02,9.61,7.57
			c3.1,2.2,8.55,5.74,11.73,7.88c3.24,1.81,8.89,4.99,12.21,6.85c-2.7-2.55-7.43-6.97-10.12-9.49c-2.5-2.73-6.82-7.37-9.23-10.15
			c-1.51-1.92-5.64-7.22-7.17-9.18c-12.4-15.88-20.6-35.41-22.9-55.61c-2.47-21.7,2.93-43.39,9.06-64.06
			c2.09-7.06,4.41-14.05,6.91-20.97c2.03,6.79,4.5,13.45,7.37,19.92c1.17,2.35,4.33,8.69,5.47,10.95c1.86,3.3,5.27,8.85,7.25,12.13
			c2.15,3.03,5.9,8.31,8.12,11.4c-1.38-3.46-3.76-9.46-5.11-12.9c-1.11-3.53-3.03-9.57-4.02-13.12c-0.54-2.38-2.01-8.94-2.57-11.37
			c-4.33-18.99-4.56-41.76,2.15-60.37c6.38-17.71,16.29-33.88,26.89-49.34c5.13-7.48,10.41-14.85,15.74-22.19
			c3.01-4.14,6.05-8.24,9.13-12.33c2.38-3.16,7.47-7.65,8.67-11.38c-7.23,22.65-12.49,48.09-12.87,74.74
			c-1.24,87.75,17.45,145.1,35.54,200.56C470.56,546.7,480.79,578.03,485.87,613.92z"/>
		
			<linearGradient id="SVGID_00000052074546588153508930000008857367289813304506_" gradientUnits="userSpaceOnUse" x1="327.5882" y1="551.5788" x2="771.3273" y2="99.2309">
			<stop  offset="5.327789e-09" style="stop-color:#FFC892"/>
			<stop  offset="1" style="stop-color:#FA839F"/>
		</linearGradient>
		<path style="fill:url(#SVGID_00000052074546588153508930000008857367289813304506_);" d="M498.54,148.47
			c-0.09,142.82-0.18,304.68-0.28,457.96c-0.8,0.48-1.6,0.95-2.41,1.43c-5.41-34.9-15.37-65.43-25.86-97.62
			c-17.8-54.63-36.22-111.11-35-197.07c0.41-28.71,6.9-57.64,18.28-84.31c12.12-28.41,30.77-52.77,45.05-79.96
			C498.39,148.75,498.47,148.61,498.54,148.47z"/>
		
			<linearGradient id="SVGID_00000096021280656764141110000018267288201436875174_" gradientUnits="userSpaceOnUse" x1="556.3777" y1="776.0142" x2="1000.1168" y2="323.6664">
			<stop  offset="5.327789e-09" style="stop-color:#FFC892"/>
			<stop  offset="1" style="stop-color:#FA839F"/>
		</linearGradient>
		<path style="fill:url(#SVGID_00000096021280656764141110000018267288201436875174_);" d="M577.49,803.45
			c-57.03,49.19-64.95,93.31-65.89,108.57c-0.18,2.92,0.28,5.79,1.08,8.6c2.81,9.89-8.14,10.9-8.14,10.9V816.88
			c8.69-2.58,15.05-10.64,15.05-20.18c0-9.52-6.36-17.59-15.05-20.17v-54.16c47.29,4.21,54,15.64,54,15.64
			c5.58,28.09,15.6,48.57,20.41,57.27C580.45,798,579.84,801.41,577.49,803.45z"/>
		
			<linearGradient id="SVGID_00000175296415126064610930000016785962655908412551_" gradientUnits="userSpaceOnUse" x1="510.4821" y1="730.9921" x2="954.2213" y2="278.6443">
			<stop  offset="5.327789e-09" style="stop-color:#FFC892"/>
			<stop  offset="1" style="stop-color:#FA839F"/>
		</linearGradient>
		<path style="fill:url(#SVGID_00000175296415126064610930000016785962655908412551_);" d="M558.53,714.39v9.75
			c0,0.92-0.94,1.52-1.78,1.15c-17.51-7.77-36.97-11.86-58.21-12.53c-0.11,0-0.23,0-0.34,0.02c-4.25,0.14-8.42,0.41-12.52,0.84
			c3.95-2.76,8.11-5.5,12.52-8.25c0.11-0.08,0.22-0.14,0.34-0.21c2.52-1.57,5.11-3.13,7.79-4.7h0.02c0.02,0,0.02,0,0.02,0
			c19.03,0.63,36.59,3.99,51.54,12.82C558.29,713.51,558.53,713.94,558.53,714.39z"/>
		
			<linearGradient id="SVGID_00000004510162309457694400000013964722614132295349_" gradientUnits="userSpaceOnUse" x1="401.9942" y1="917.7689" x2="641.4725" y2="502.9863">
			<stop  offset="0" style="stop-color:#FA839F"/>
			<stop  offset="1" style="stop-color:#FFC892"/>
		</linearGradient>
		<path style="fill:url(#SVGID_00000004510162309457694400000013964722614132295349_);" d="M685.87,572.05
			c-49.26,49.94-116.23,77.02-175.21,109.98c-4.31,2.4-8.45,4.77-12.44,7.14c-6.73,4-12.99,7.99-18.83,12.03
			c-8.7,5.94-16.44,11.99-23.26,18.24c-0.87,0.78-1.71,1.58-2.56,2.38c-4.84,4.61-9.18,9.33-13.06,14.2
			c-0.73,0.89-1.44,1.8-2.12,2.72c-22.96,30.41-28.79,67.39-23.6,123.06C321.38,583.05,787.55,669.9,718.5,367.62
			C753.63,438.93,742.55,515.48,685.87,572.05z"/>
		
			<linearGradient id="SVGID_00000113325269812451337030000015871612015974297788_" gradientUnits="userSpaceOnUse" x1="480.978" y1="702.0494" x2="924.7171" y2="249.7016">
			<stop  offset="5.327789e-09" style="stop-color:#FFC892"/>
			<stop  offset="1" style="stop-color:#FA839F"/>
		</linearGradient>
		<path style="fill:url(#SVGID_00000113325269812451337030000015871612015974297788_);" d="M414.79,861.81
			c-33.24-52.68-37.85-116.28,0.39-168.16c3.17-4.34,6.51-8.51,10.02-12.55c20.48-23.65,46.2-42.3,73.07-58.57
			c17.94-10.91,36.43-20.73,54.19-30.31c108.33-57.04,166.72-91.86,166.04-224.61C787.55,669.9,321.38,583.05,414.79,861.81z"/>
		
			<linearGradient id="SVGID_00000000922686613022612570000004119522436241843623_" gradientUnits="userSpaceOnUse" x1="544.1429" y1="764.0123" x2="987.8821" y2="311.6645">
			<stop  offset="5.327789e-09" style="stop-color:#FFC892"/>
			<stop  offset="1" style="stop-color:#FA839F"/>
		</linearGradient>
		<path style="fill:url(#SVGID_00000000922686613022612570000004119522436241843623_);" d="M492.55,722.37v54.16
			c-8.69,2.58-15.05,10.64-15.05,20.17c0,9.54,6.36,17.6,15.05,20.18v114.65c0,0-10.94-1.01-8.14-10.9c0.8-2.81,1.26-5.68,1.08-8.6
			c-0.88-14.54-8.12-55.25-58.09-101.58c2.44-32.51,12.7-56.09,34.25-77.22c2.72-2.67,5.61-5.3,8.69-7.89
			C476.5,724.17,483.84,723.14,492.55,722.37z"/>
		<g>
			
				<linearGradient id="SVGID_00000151543939129597193300000007830641796358530473_" gradientUnits="userSpaceOnUse" x1="303.9448" y1="528.3854" x2="747.6839" y2="76.0375">
				<stop  offset="5.327789e-09" style="stop-color:#FFC892"/>
				<stop  offset="1" style="stop-color:#FA839F"/>
			</linearGradient>
			<path style="fill:url(#SVGID_00000151543939129597193300000007830641796358530473_);" d="M518.39,376.32l38.98-38.98v-39.69
				l-22.12-22.13V231c4.22-2.01,7.15-6.31,7.15-11.3c0-6.92-5.61-12.53-12.53-12.53c-6.92,0-12.53,5.61-12.53,12.53
				c0,4.99,2.93,9.29,7.16,11.31v48.97l22.12,22.13v30.78l-38.98,38.98v25.31l10.75,8.88V376.32z"/>
			
				<linearGradient id="SVGID_00000183230029482917332480000010119514744869346473_" gradientUnits="userSpaceOnUse" x1="420.4536" y1="642.6768" x2="864.1927" y2="190.329">
				<stop  offset="5.327789e-09" style="stop-color:#FFC892"/>
				<stop  offset="1" style="stop-color:#FA839F"/>
			</linearGradient>
			<path style="fill:url(#SVGID_00000183230029482917332480000010119514744869346473_);" d="M551.36,553.31v-48.96L521,473.99
				l-8.32,6.88l27.94,27.94v44.51c-4.23,2.01-7.16,6.31-7.16,11.31c0,6.92,5.61,12.53,12.53,12.53c6.92,0,12.53-5.61,12.53-12.53
				C558.51,559.63,555.59,555.33,551.36,553.31z"/>
			
				<linearGradient id="SVGID_00000120547853155056313730000008703290910697470111_" gradientUnits="userSpaceOnUse" x1="309.8246" y1="534.1533" x2="753.5637" y2="81.8054">
				<stop  offset="5.327789e-09" style="stop-color:#FFC892"/>
				<stop  offset="1" style="stop-color:#FA839F"/>
			</linearGradient>
			<path style="fill:url(#SVGID_00000120547853155056313730000008703290910697470111_);" d="M520.37,332.26
				c7.03,0,12.73-5.7,12.73-12.73c0-7.03-5.7-12.73-12.73-12.73c-7.03,0-12.73,5.7-12.73,12.73
				C507.64,326.56,513.34,332.26,520.37,332.26z"/>
			
				<linearGradient id="SVGID_00000087380121935052085060000015820120990068684980_" gradientUnits="userSpaceOnUse" x1="331.091" y1="555.015" x2="774.8301" y2="102.6672">
				<stop  offset="5.327789e-09" style="stop-color:#FFC892"/>
				<stop  offset="1" style="stop-color:#FA839F"/>
			</linearGradient>
			<path style="fill:url(#SVGID_00000087380121935052085060000015820120990068684980_);" d="M549.7,257.9v13.7l22.38,22.95v49.1
				l-34.11,36.95v41.65l10.75,8.89v-46.34l34.11-36.95v-57.69l-22.38-22.95v-9.33c4.22-2.02,7.15-6.31,7.15-11.3
				c0-6.92-5.61-12.53-12.53-12.53c-6.92,0-12.53,5.61-12.53,12.53C542.54,251.59,545.47,255.89,549.7,257.9z"/>
			
				<linearGradient id="SVGID_00000110440227965701185000000002417505870831145389_" gradientUnits="userSpaceOnUse" x1="428.8437" y1="650.9073" x2="872.5828" y2="198.5595">
				<stop  offset="5.327789e-09" style="stop-color:#FFC892"/>
				<stop  offset="1" style="stop-color:#FA839F"/>
			</linearGradient>
			<path style="fill:url(#SVGID_00000110440227965701185000000002417505870831145389_);" d="M612.58,471.87v0.02l9.29,9.06h9.34
				c2.01-4.22,6.31-7.16,11.3-7.16c6.93,0,12.53,5.62,12.53,12.53c0,6.93-5.61,12.53-12.53,12.53c-4.99,0-9.29-2.93-11.3-7.16
				h-13.72l-22.93-22.38h-16.03l36.57,36.57v13.3c4.22,2.03,7.16,6.33,7.16,11.32c0,2.93-1.01,5.64-2.7,7.77
				c-1.7,2.15-4.1,3.72-6.83,4.38c-0.97,0.25-1.97,0.37-2.99,0.37c-6.93,0-12.53-5.61-12.53-12.52c0-5.01,2.93-9.29,7.16-11.32
				v-8.85l-41.02-41.02h-12.32l29.46,29.46v46c4.22,2.01,7.16,6.31,7.16,11.3c0,0.51-0.03,1.01-0.09,1.51
				c-0.75,6.22-6.04,11.03-12.44,11.03c-1.94,0-3.78-0.43-5.41-1.21c-4.22-2.03-7.13-6.33-7.13-11.32c0-4.99,2.93-9.29,7.16-11.3
				v-41.55l-33.91-33.91h-9.15l13.01-10.75h59.27l5.94,5.81l19.24-18.55h13.68c2.01-4.22,6.31-7.16,11.3-7.16
				c6.93,0,12.53,5.61,12.53,12.53c0,6.91-5.61,12.53-12.53,12.53c-4.99,0-9.29-2.93-11.3-7.16h-9.34L612.58,471.87z"/>
			
				<linearGradient id="SVGID_00000125596248597670111210000017732836672813107116_" gradientUnits="userSpaceOnUse" x1="368.3399" y1="591.555" x2="812.079" y2="139.2072">
				<stop  offset="5.327789e-09" style="stop-color:#FFC892"/>
				<stop  offset="1" style="stop-color:#FA839F"/>
			</linearGradient>
			<path style="fill:url(#SVGID_00000125596248597670111210000017732836672813107116_);" d="M516.35,462.64l8.79-7.27l0.09-0.07
				l11.89-9.83l1.59-1.31c1.92-1.59,1.92-4.53,0-6.12l-1.59-1.31l-20.77-17.17c-2.58-2.14-6.51-0.3-6.51,3.06v36.96
				C509.84,462.94,513.77,464.79,516.35,462.64z"/>
			
				<linearGradient id="SVGID_00000026149946735747606820000017602439673869962896_" gradientUnits="userSpaceOnUse" x1="407.8498" y1="630.313" x2="851.5889" y2="177.9651">
				<stop  offset="5.327789e-09" style="stop-color:#FFC892"/>
				<stop  offset="1" style="stop-color:#FA839F"/>
			</linearGradient>
			<path style="fill:url(#SVGID_00000026149946735747606820000017602439673869962896_);" d="M631.21,413.35H617.5l-22.93,22.38
				h-40.49c2.72,3.06,2.72,7.69,0,10.75h44.85l22.95-22.38h9.34c2.02,4.22,6.31,7.15,11.3,7.15c6.92,0,12.53-5.61,12.53-12.53
				c0-6.92-5.61-12.53-12.53-12.53C637.52,406.19,633.22,409.12,631.21,413.35z"/>
			
				<linearGradient id="SVGID_00000084527958243256491940000013721193876810026917_" gradientUnits="userSpaceOnUse" x1="363.7231" y1="587.0259" x2="807.4622" y2="134.6781">
				<stop  offset="5.327789e-09" style="stop-color:#FFC892"/>
				<stop  offset="1" style="stop-color:#FA839F"/>
			</linearGradient>
			<path style="fill:url(#SVGID_00000084527958243256491940000013721193876810026917_);" d="M597.99,339.94v15.21l-17.34,17.34
				c-1.58-0.56-3.29-0.82-5.06-0.7c-6.9,0.48-12.11,6.46-11.64,13.37c0.48,6.9,6.46,12.11,13.37,11.64
				c6.9-0.48,12.11-6.46,11.64-13.37c-0.08-1.17-0.33-2.28-0.7-3.33l20.49-20.49v-19.66c4.23-2.01,7.16-6.31,7.16-11.31
				c0-6.92-5.61-12.53-12.53-12.53c-6.92,0-12.53,5.61-12.53,12.53C590.83,333.62,593.76,337.92,597.99,339.94z"/>
			
				<linearGradient id="SVGID_00000119083533670240573530000012710340934111834523_" gradientUnits="userSpaceOnUse" x1="423.6221" y1="645.7851" x2="867.3612" y2="193.4372">
				<stop  offset="5.327789e-09" style="stop-color:#FFC892"/>
				<stop  offset="1" style="stop-color:#FA839F"/>
			</linearGradient>
			<path style="fill:url(#SVGID_00000119083533670240573530000012710340934111834523_);" d="M532.9,515.78
				c0,5.01-2.93,9.29-7.16,11.32v63.85c-3.58,1.95-7.16,3.92-10.75,5.93V527.1c-4.22-2.03-7.16-6.31-7.16-11.32
				c0-6.91,5.62-12.52,12.53-12.52C527.29,503.27,532.9,508.87,532.9,515.78z"/>
			
				<linearGradient id="SVGID_00000025442377783551259010000010405356695702855056_" gradientUnits="userSpaceOnUse" x1="387.7408" y1="610.5867" x2="831.4799" y2="158.2388">
				<stop  offset="5.327789e-09" style="stop-color:#FFC892"/>
				<stop  offset="1" style="stop-color:#FA839F"/>
			</linearGradient>
			<path style="fill:url(#SVGID_00000025442377783551259010000010405356695702855056_);" d="M609.34,373.91
				c0,4.99,2.93,9.29,7.16,11.31v1.25l-24.63,24.63h-8.86c-2.01-4.23-6.31-7.16-11.31-7.16c-6.92,0-12.53,5.61-12.53,12.53
				c0,6.92,5.61,12.53,12.53,12.53c4.99,0,9.29-2.93,11.31-7.16h13.31l30.92-30.92v-5.71c4.23-2.01,7.15-6.31,7.15-11.31
				c0-6.92-5.61-12.53-12.53-12.53C614.95,361.37,609.34,366.99,609.34,373.91z"/>
		</g>
	</g>
</g>
</svg>
