<?xml version="1.0" encoding="utf-8"?>
<!-- Generator: Adobe Illustrator 28.0.0, SVG Export Plug-In . SVG Version: 6.00 Build 0)  -->
<svg version="1.1" id="Layer_1" xmlns="http://www.w3.org/2000/svg" xmlns:xlink="http://www.w3.org/1999/xlink" x="0px" y="0px"
	 viewBox="0 0 1015.48 421.48" style="enable-background:new 0 0 1015.48 421.48;" xml:space="preserve">
<style type="text/css">
	.st0{fill:#00453A;}
	.st1{fill:#2D3588;}
</style>
<g>
	<g>
		<g>
			<g>
				<g>
					<path class="st1" d="M419.43,114.1c-6.94-3.53-15.94-6.07-26.75-7.57c-10.46-1.45-22.19-2.35-34.85-2.68
						c-13.17-0.34-26.29-0.41-38.99-0.47c-7.87-0.04-15.55-0.08-22.88-0.18c-7.77-0.11-14.67-0.38-20.51-0.81
						c-5.68-0.41-10.18-1.03-13.37-1.83c-0.03-0.01-0.06-0.01-0.08-0.02c0.09-0.11,0.19-0.22,0.29-0.34c1.61-1.8,3.9-3.83,6.79-6.03
						c3.12-2.37,6.68-4.95,10.66-7.75c4.01-2.82,8.3-5.74,12.85-8.78c5.94-3.95,11.98-8.07,18.13-12.36
						c6.26-4.37,11.98-8.78,16.99-13.13c5.18-4.49,9.47-9.02,12.76-13.49c3.73-5.07,5.63-10.2,5.63-15.27
						c0-5.45-2.59-9.8-7.28-12.24c-8.48-4.4-22.85-3.83-46.61,1.84c-12.93,3.1-27.37,7.34-42.92,12.59
						c-15.55,5.26-32.22,11.59-49.52,18.82c-17.3,7.23-34.6,15.05-51.43,23.24c-16.85,8.21-33.18,16.93-48.56,25.93
						c-15.42,9.04-29.22,18.15-41.01,27.07c-11.97,9.06-21.65,18.07-28.76,26.77c-7.65,9.34-11.53,18.36-11.53,26.79
						c0,5.81,2.07,10.82,6.14,14.9c2.8,2.77,6.81,2.94,9.98,0.39c2.04-1.63,2.64-3.57,2.78-4.92c0.21-2.03-0.49-4.06-1.98-5.85
						c-1.19-1.46-1.75-2.89-1.75-4.52c0-5.45,3-11.74,8.91-18.71c6.48-7.63,15.41-15.74,26.53-24.12
						c11.25-8.46,24.47-17.11,39.31-25.71c14.93-8.65,30.8-17.03,47.18-24.89c16.46-7.9,33.3-15.47,50.08-22.51
						c16.78-7.03,32.93-13.22,48.03-18.4c15.07-5.17,28.97-9.26,41.3-12.15c12.13-2.85,21.92-4.29,29.12-4.29
						c3.79,0,5.87,0.45,6.77,0.79c-0.22,1.35-1.02,3.38-3.24,6.27c-2.71,3.51-6.31,7.15-10.69,10.82
						c-4.62,3.87-9.85,7.86-15.55,11.86c-5.76,4.05-11.56,8-17.27,11.73c-4.62,3.09-9.14,6.17-13.55,9.24
						c-4.45,3.12-8.48,6.19-12,9.13c-3.63,3.05-6.57,5.93-8.72,8.58c-2.79,3.41-4.15,6.65-4.15,9.91c0,2.92,1.15,8.29,8.85,11.45
						c4.2,1.73,9.64,2.97,16.63,3.81c6.56,0.78,14.25,1.23,22.85,1.35c8.47,0.11,17.38,0.15,26.53,0.19
						c11.62,0.04,23.63,0.09,35.58,0.31c11.75,0.21,22.55,0.92,32.07,2.09c9.21,1.14,16.79,2.95,22.53,5.37
						c6.11,2.57,6.11,5.25,6.11,6.27c0,1.15-0.7,4.44-7.21,10.11c-5.76,5.02-13.66,10.52-23.48,16.32
						c-9.96,5.89-21.62,11.99-34.64,18.12c-13.23,6.23-27.06,12.38-41.11,18.27c-14.09,5.92-28.57,11.56-43.03,16.79
						c-14.35,5.18-28,9.79-40.59,13.69c-12.44,3.86-23.68,6.97-33.4,9.25c-9.39,2.19-16.6,3.3-21.43,3.3c-1.32,0-1.93,0-1.93-3.23
						c0-4.4,0.78-10.13,2.33-17.04c1.6-7.12,3.86-14.99,6.72-23.38c2.89-8.45,6.32-17.31,10.19-26.35
						c3.85-8.99,8.08-17.85,12.6-26.32c4.5-8.47,9.27-16.55,14.17-24c4.84-7.37,9.72-13.62,14.51-18.62c0.27-0.29,0.5-0.6,0.7-0.92
						c1.86-3.11,1.51-6.6-0.93-9.34c-2.73-3.07-6.92-3.39-10.23-0.75c-0.08,0.06-0.41,0.37-0.48,0.44
						c-5.45,5.68-10.85,12.62-16.04,20.62c-5.09,7.86-10.08,16.45-14.83,25.5c-4.76,9.07-9.24,18.53-13.3,28.09
						c-4.07,9.56-7.65,18.91-10.64,27.76c-2.98,8.83-5.4,17.15-7.19,24.74c-1.83,7.76-2.76,14.35-2.76,19.58
						c0,5.49,1.51,9.94,4.48,13.22c3.11,3.44,7.35,5.19,12.62,5.19c5.71,0,13.6-1.17,24.13-3.58c10.15-2.32,21.9-5.49,34.94-9.44
						c13-3.93,27.1-8.65,41.92-14.03c14.85-5.4,29.72-11.22,44.19-17.31c14.5-6.11,28.7-12.48,42.2-18.96
						c13.51-6.48,25.69-13.01,36.21-19.44c10.65-6.5,19.27-12.85,25.63-18.86c7.29-6.9,10.83-13.26,10.83-19.42
						C431.99,124.67,427.65,118.28,419.43,114.1"/>
					<path class="st1" d="M525.74,64.96c39.07-2.82,85.6-4.25,138.31-4.25c3.91,0,6.94-2.75,7.53-6.84
						c0.32-2.24-0.24-4.32-1.59-5.86c-0.97-1.13-2.8-2.47-5.94-2.47c-52.75,0-99.49,1.49-138.92,4.44
						c-39.42,2.95-73.78,6.83-102.12,11.53c-28.45,4.72-52.26,10.19-70.77,16.26c-18.65,6.11-33.66,12.44-44.62,18.82
						c-11.31,6.57-19.36,13.14-23.94,19.52c-4.86,6.79-7.22,12.67-7.22,18c0,5.85,2.04,10.77,6.05,14.62
						c3.95,3.81,9.22,5.75,15.64,5.75c2.87,0,6.47-1.79,7.21-6.86c0.32-2.28-0.25-4.38-1.58-5.92c-1.33-1.54-3.33-2.39-5.62-2.39
						c-2.33,0-3.98-0.49-5.05-1.51c-1.01-0.96-1.46-2.1-1.46-3.7c0-1.05,0.48-4.16,4.88-10.15c3.48-4.73,10.04-9.86,19.5-15.26
						c9.8-5.58,23.64-11.28,41.14-16.94c17.6-5.68,40.51-10.91,68.11-15.55C452.93,71.56,486.73,67.78,525.74,64.96"/>
					<path class="st1" d="M996.13,188.43C996.13,188.43,996.13,188.43,996.13,188.43c-1.51-2.36-4.01-3.03-6.81-1.6
						c-4.44,2.96-9.59,5.7-15.31,8.13c-5.77,2.46-11.94,4.63-18.37,6.44c-6.45,1.83-12.98,3.29-19.39,4.36
						c-6.4,1.07-12.43,1.6-17.92,1.6c-1.86,0-3.45-0.49-4.87-1.48c-1.67-1.18-1.67-2.09-1.67-2.43c0-1.54,0.25-3.37,0.75-5.46
						c0.46-1.94,1.15-3.56,1.95-4.69c1.53-1.91,1.74-4.23,0.58-6.36c-1.28-2.34-3.55-3.23-6.03-2.42c-2.67,0.8-4.95,1.09-6.78,0.86
						c-1.02-0.94-2.29-1.55-3.72-1.77c-0.36-0.49-0.52-1.07-0.52-1.81c0-1.94-0.81-3.04-1.48-3.63c-0.68-0.59-1.9-1.23-3.84-0.96
						c-4.23,0.61-4.56,3.66-4.56,4.58c0,1.76,0.27,3.39,0.8,4.88c-4.27,2.3-8.61,4.28-12.95,5.9c-5.82,2.17-11.21,3.27-16.02,3.27
						c-2.56,0-5.48-0.48-8.67-1.42c-0.86-0.25-1.71-0.58-2.54-0.99c0.14-0.26,0.26-0.52,0.37-0.79c0.18-0.44,0.3-0.9,0.35-1.34
						c0.33-2.68-0.15-5.59-1.5-8.88c-1.05-2.58-3.95-6.9-11.62-6.9c-3.01,0-6.24,0.85-9.58,2.52c-2.99,1.5-5.78,3.33-8.3,5.47
						c-0.14,0.11-0.26,0.23-0.43,0.41c-0.48,0.26-0.9,0.54-1.21,0.81c-2.89,2.13-6.13,3.89-9.61,5.24
						c-3.67,1.43-7.52,2.62-11.43,3.55c-3.95,0.94-7.77,1.62-11.35,2.03c-9.73,1.11-17.41,0.74-24.2-1.15
						c-0.73-0.2-1.43-0.41-2.09-0.62c1.33-0.9,2.62-1.68,3.86-2.34c2.44-1.22,4.66-4.14,3.61-8.7c-0.51-2.19-1.79-3.91-3.61-4.84
						c-1.93-0.98-4.14-0.95-6.7,0.15c-2.57,1.29-5.24,2.91-7.96,4.83l7.81-25.65c1.34-4.04-0.67-7.92-4.89-9.44
						c-2.15-0.76-4.31-0.67-6.1,0.25c-1.26,0.65-2.92,1.99-3.7,4.73l-9.62,32.71c-2.67,1.83-5.53,3.34-8.53,4.5
						c-3.67,1.43-7.52,2.62-11.43,3.55c-3.95,0.94-7.77,1.62-11.35,2.03c-9.71,1.11-17.4,0.74-24.2-1.15
						c-0.73-0.2-1.43-0.41-2.09-0.62c1.33-0.9,2.62-1.68,3.85-2.34c2.44-1.22,4.66-4.14,3.61-8.7c-0.5-2.19-1.79-3.91-3.61-4.84
						c-1.93-0.98-4.13-0.95-6.7,0.15c-2.57,1.29-5.24,2.91-7.96,4.83l7.81-25.65c1.34-4.04-0.67-7.92-4.89-9.43
						c-2.13-0.76-4.29-0.67-6.09,0.25c-1.26,0.65-2.92,1.99-3.7,4.73l-9.51,32.31c-4.92,2.87-10.29,5.39-15.95,7.5
						c-5.82,2.17-11.21,3.27-16.02,3.27c-2.56,0-5.48-0.48-8.67-1.42c-0.86-0.25-1.71-0.58-2.54-0.99c0.14-0.26,0.26-0.52,0.37-0.79
						c0.18-0.44,0.3-0.9,0.35-1.34c0.34-2.68-0.15-5.59-1.5-8.88c-1.05-2.58-3.95-6.9-11.62-6.9c-3.01,0-6.24,0.85-9.58,2.52
						c-2.99,1.5-5.78,3.33-8.28,5.46c-0.32,0.27-0.61,0.56-0.89,0.86l-0.13,0.13c-10.85,5.39-21.7,9.48-32.27,12.17
						c-10.65,2.72-18.92,4.1-24.59,4.1c-2.19,0-3.11-0.75-3.68-1.42c-1.58-1.86-2.89-3.68-3.72-5.16c-0.95-1.9-2.12-3.87-3.49-5.88
						c-4.28-6.21-12.57-6.01-19.79-1.81l6.08-33.79c0.4-2.85-0.56-4.76-1.43-5.85c-1.21-1.52-3.06-2.45-5.2-2.62
						c-3.9-0.3-7.01,1.82-8.23,5.45c-0.03,0.1-0.14,0.56-0.16,0.66l-11.13,60.24c-0.77,3.82,1.39,7.23,5.26,8.29
						c4.13,1.14,7.48-1.31,8.22-2.93c4.52-6.58,8.42-11.32,11.58-14.1c1.77-1.55,3.1-2.36,4.03-2.8c0.22,0.43,0.49,0.98,0.8,1.68
						c1.49,3.24,3.5,6.39,5.98,9.37c3.22,3.88,8.24,5.85,14.89,5.85c3.34,0,7.49-0.41,12.35-1.22c4.76-0.8,9.99-1.93,15.55-3.38
						c5.57-1.45,11.53-3.32,17.69-5.56c1.18-0.43,2.36-0.89,3.54-1.38c0.56,1.77,1.5,3.24,2.82,4.37c2.31,2,5.42,2.76,9.32,2.18
						c4.63-0.68,9.35-3.04,14.38-7.2c2.95,2.07,6.09,3.68,9.33,4.82c10.51,3.7,22.13,3.15,35.51-1.65c1.66-0.6,3.33-1.24,4.98-1.92
						l-1.84,6.28c-0.74,1.85-0.72,3.79,0.05,5.48c0.57,1.24,1.81,2.91,4.51,3.82c3.78,1.25,7.41-0.14,9.01-3.31
						c1.37-2.75,3.07-5.44,5.04-7.99c1.15-1.49,2.34-2.94,3.56-4.3c2.79,1.48,6.14,2.78,9.97,3.87c5.79,1.66,12.29,2.5,19.33,2.5
						c3.48,0,7.42-0.23,11.71-0.68c4.32-0.45,8.79-1.21,13.25-2.23c3.44-0.79,6.87-1.83,10.24-3.09l-1.75,5.96
						c-0.74,1.85-0.72,3.79,0.05,5.48c0.57,1.24,1.81,2.91,4.51,3.82c0.96,0.32,1.9,0.48,2.81,0.48c2.69,0,5.01-1.42,6.21-3.79
						c1.37-2.75,3.07-5.44,5.04-7.99c1.15-1.49,2.34-2.94,3.55-4.3c2.79,1.48,6.14,2.78,9.98,3.87c5.78,1.66,12.29,2.5,19.32,2.5
						c3.48,0,7.42-0.23,11.71-0.68c4.32-0.45,8.79-1.21,13.25-2.23c3.46-0.8,6.94-1.86,10.38-3.15c0.57,1.4,1.41,2.57,2.5,3.5
						c2.31,2,5.41,2.76,9.33,2.18c4.63-0.68,9.35-3.04,14.38-7.2c2.95,2.07,6.09,3.68,9.33,4.82c10.51,3.7,22.13,3.15,35.51-1.65
						c7.41-2.66,14.05-5.83,20.52-9.86c0.7-0.56,1.29-1.2,1.76-1.92c0.02,0,0.04,0,0.05,0c-0.21,0.71-0.42,1.44-0.61,2.19
						c-0.6,2.28-0.9,4.32-0.9,6.08c0,3.89,1.71,7.23,5.09,9.93c3.21,2.56,7.02,3.86,11.33,3.86c6.01,0,12.55-0.56,19.44-1.67
						c6.88-1.11,13.83-2.68,20.65-4.66c6.86-2,13.53-4.35,19.8-6.99c6.36-2.68,11.97-5.63,16.85-8.9
						C997.22,193.31,997.62,190.78,996.13,188.43"/>
					<path class="st1" d="M478.85,100.14c-6.23,11.69-11.64,24.02-16.32,36.55c-4.65,12.56-8.53,25.4-11.45,38.44
						c-2.92,13.04-4.91,26.27-5.62,39.56c-0.72,13.28-0.25,26.62,1.84,39.69c1.04,6.53,2.39,13.02,4.23,19.37
						c1.84,6.35,4.06,12.58,6.66,18.66c2.63,6.07,5.71,11.93,9.09,17.63c3.39,5.69,7.27,11.08,11.36,16.32
						c4.15,5.19,8.64,10.12,13.37,14.82c4.81,4.63,9.77,9.12,15.08,13.22c10.52,8.3,21.9,15.59,33.85,21.88
						c11.94,6.32,24.37,11.74,37.11,16.46c6.44,2.27,12.79,4.72,19.23,6.59c6.47,1.9,13.04,3.49,19.69,4.76
						c26.57,5.04,54.16,5.84,80.92,1.28c6.68-1.16,13.3-2.68,19.8-4.61c6.49-1.95,12.86-4.32,19.02-7.14
						c12.29-5.67,23.76-13.32,33.16-23.13c9.48-9.73,16.63-21.65,21.25-34.48c4.58-12.87,6.6-26.59,6.84-40.27
						c0.08,13.69-1.61,27.49-5.92,40.59c-4.35,13.05-11.31,25.34-20.75,35.49c-9.35,10.23-20.9,18.34-33.32,24.44
						c-6.22,3.04-12.68,5.61-19.26,7.76c-6.59,2.12-13.31,3.83-20.1,5.18c-27.2,5.3-55.31,5.16-82.67,0.64
						c-6.85-1.14-13.64-2.62-20.37-4.42c-6.77-1.79-13.28-4.13-19.81-6.26c-13.07-4.47-25.96-9.71-38.4-15.91
						c-12.46-6.18-24.45-13.43-35.66-21.83c-5.65-4.14-10.98-8.73-16.16-13.48c-5.11-4.83-9.99-9.93-14.54-15.33
						c-4.48-5.45-8.76-11.1-12.54-17.1c-3.77-5.99-7.22-12.2-10.21-18.64c-2.95-6.45-5.5-13.09-7.64-19.85
						c-2.15-6.76-3.77-13.68-5.06-20.65c-2.58-13.94-3.42-28.14-3.01-42.24c0.4-14.11,2.16-28.12,4.89-41.9
						c2.74-13.78,6.47-27.33,11-40.59c4.58-13.26,9.88-26.23,16.23-38.89c1.98-3.95,6.79-5.54,10.74-3.56
						c3.95,1.98,5.54,6.79,3.56,10.74c-0.02,0.05-0.05,0.1-0.07,0.14L478.85,100.14z"/>
				</g>
			</g>
		</g>
	</g>
</g>
</svg>
