<?xml version="1.0" encoding="utf-8"?>
<!-- Generator: Adobe Illustrator 28.0.0, SVG Export Plug-In . SVG Version: 6.00 Build 0)  -->
<svg version="1.1" id="Layer_1" xmlns="http://www.w3.org/2000/svg" xmlns:xlink="http://www.w3.org/1999/xlink" x="0px" y="0px"
	 viewBox="0 0 1080 1080" style="enable-background:new 0 0 1080 1080;" xml:space="preserve">
<style type="text/css">
	.st0{fill:#005433;}
	.st1{fill:#FABA34;}
	.st2{fill:#FF5B04;}
	.st3{fill:#16232B;}
	.st4{fill:#E63120;}
	.st5{fill:#5171AE;}
	.st6{fill:#282B30;}
</style>
<g>
	<g>
		<g>
			<g>
				<g>
					<path class="st0" d="M166.65,574.37c-11.55,7.19-22.71,15.47-31.92,25.74c-7.25-10.82-14.38-21.83-20.64-33.26
						c-6.9-12.6-11.77-26.74-14.01-41.23c2.2,2.47,4.57,4.79,7.08,6.96c0.96,0.76,3.55,2.8,4.47,3.52c1.44,1.02,3.98,2.67,5.46,3.66
						c1.51,0.84,4.13,2.32,5.68,3.18c-1.26-1.19-3.46-3.24-4.71-4.41c-1.16-1.27-3.17-3.43-4.29-4.72c-0.7-0.89-2.62-3.36-3.34-4.27
						c-5.77-7.38-9.58-16.46-10.65-25.85c-1.15-10.09,1.36-20.17,4.21-29.79c0.97-3.28,2.05-6.53,3.21-9.75
						c0.94,3.16,2.09,6.26,3.43,9.26c0.54,1.09,2.01,4.04,2.54,5.09c0.86,1.54,2.45,4.11,3.37,5.64c1,1.41,2.74,3.86,3.78,5.3
						c-0.64-1.61-1.75-4.4-2.38-6c-0.51-1.64-1.41-4.45-1.87-6.1c-0.25-1.11-0.94-4.16-1.19-5.28c-2.01-8.83-2.12-19.42,1-28.07
						c2.97-8.23,7.58-15.75,12.5-22.94c2.38-3.48,4.84-6.91,7.32-10.32c1.4-1.92,2.82-3.83,4.25-5.73c1.11-1.47,3.48-3.56,4.03-5.29
						c-3.36,10.53-5.81,22.36-5.98,34.75c-0.58,40.8,8.11,67.46,16.52,93.25C159.53,543.11,164.28,557.68,166.65,574.37z"/>
				</g>
				<g>
					<path class="st0" d="M172.54,357.95c-0.04,66.41-0.09,141.66-0.13,212.93c-0.37,0.22-0.74,0.44-1.12,0.66
						c-2.51-16.23-7.15-30.42-12.03-45.39c-8.28-25.4-16.84-51.66-16.28-91.63c0.19-13.35,3.21-26.8,8.5-39.2
						c5.64-13.21,14.31-24.54,20.95-37.18C172.47,358.09,172.5,358.02,172.54,357.95z"/>
				</g>
			</g>
		</g>
		<path class="st1" d="M209.24,662.49c-26.52,22.87-30.2,43.38-30.64,50.48c-0.09,1.36,0.13,2.69,0.5,4
			c1.31,4.6-3.78,5.07-3.78,5.07v-53.31c4.04-1.2,7-4.95,7-9.38c0-4.43-2.96-8.18-7-9.38V624.8c21.99,1.96,25.11,7.27,25.11,7.27
			c2.59,13.06,7.26,22.58,9.49,26.63C210.62,659.96,210.34,661.54,209.24,662.49z"/>
		<path class="st2" d="M200.43,621.08v4.53c0,0.43-0.44,0.71-0.83,0.54c-8.14-3.61-17.19-5.51-27.07-5.83c-0.05,0-0.11,0-0.16,0.01
			c-1.98,0.06-3.91,0.19-5.82,0.39c1.84-1.29,3.77-2.56,5.82-3.83c0.05-0.04,0.1-0.06,0.16-0.1c1.17-0.73,2.38-1.46,3.62-2.19h0.01
			c0.01,0,0.01,0,0.01,0c8.85,0.29,17.01,1.86,23.97,5.96C200.32,620.68,200.43,620.88,200.43,621.08z"/>
		<path class="st3" d="M259.63,554.9c-22.9,23.22-54.04,35.81-81.46,51.14c-2.01,1.11-3.93,2.21-5.78,3.31
			c-3.13,1.86-6.04,3.72-8.76,5.59c-4.04,2.77-7.64,5.58-10.81,8.48c-0.41,0.36-0.8,0.74-1.19,1.11c-2.25,2.14-4.27,4.33-6.08,6.6
			c-0.34,0.41-0.66,0.84-0.98,1.26c-10.68,14.15-13.39,31.34-10.98,57.22c-15.45-24.49-17.6-54.07,0.19-78.19
			c1.47-2.01,3.03-3.96,4.66-5.83c9.53-11,21.48-19.67,33.97-27.23c8.35-5.07,16.94-9.64,25.2-14.09
			c50.37-26.52,77.51-42.71,77.2-104.43C291.15,493.01,285.99,528.6,259.63,554.9z"/>
		<path class="st4" d="M169.75,624.8v25.18c-4.04,1.2-7,4.95-7,9.38c0,4.43,2.96,8.18,7,9.38v53.31c0,0-5.08-0.47-3.78-5.07
			c0.37-1.31,0.59-2.64,0.5-4c-0.41-6.76-3.78-25.69-27.01-47.23c1.14-15.12,5.91-26.08,15.93-35.91c1.26-1.24,2.61-2.46,4.04-3.67
			C162.29,625.63,165.7,625.15,169.75,624.8z"/>
		<g>
			<g>
				<path class="st5" d="M181.76,463.9l18.12-18.12v-18.45l-10.28-10.29v-20.7c1.96-0.94,3.33-2.94,3.33-5.26
					c0-3.22-2.61-5.83-5.83-5.83c-3.22,0-5.83,2.61-5.83,5.83c0,2.32,1.36,4.32,3.33,5.26v22.77l10.28,10.29v14.31l-18.12,18.12
					v11.77l5,4.13V463.9z"/>
				<path class="st5" d="M197.1,546.19v-22.77l-14.12-14.12l-3.87,3.2l12.99,12.99v20.69c-1.97,0.94-3.33,2.94-3.33,5.26
					c0,3.22,2.61,5.83,5.83,5.83c3.22,0,5.83-2.61,5.83-5.83C200.42,549.13,199.06,547.13,197.1,546.19z"/>
				<path class="st5" d="M182.68,443.41c3.27,0,5.92-2.65,5.92-5.92c0-3.27-2.65-5.92-5.92-5.92c-3.27,0-5.92,2.65-5.92,5.92
					C176.76,440.76,179.42,443.41,182.68,443.41z"/>
				<path class="st5" d="M196.32,408.84v6.37l10.4,10.67v22.83l-15.86,17.18v19.37l5,4.13v-21.55l15.86-17.18v-26.82l-10.4-10.67
					v-4.34c1.96-0.94,3.32-2.94,3.32-5.26c0-3.22-2.61-5.83-5.83-5.83c-3.22,0-5.83,2.61-5.83,5.83
					C193,405.9,194.36,407.9,196.32,408.84z"/>
				<path class="st5" d="M225.56,508.32L225.56,508.32l4.32,4.22h4.34c0.94-1.96,2.94-3.33,5.26-3.33c3.22,0,5.83,2.61,5.83,5.83
					c0,3.22-2.61,5.83-5.83,5.83c-2.32,0-4.32-1.36-5.26-3.33h-6.38l-10.66-10.4h-7.46l17,17v6.18c1.96,0.94,3.33,2.94,3.33,5.26
					c0,1.36-0.47,2.62-1.26,3.61c-0.79,1-1.91,1.73-3.18,2.04c-0.45,0.11-0.91,0.17-1.39,0.17c-3.22,0-5.83-2.61-5.83-5.82
					c0-2.33,1.36-4.32,3.33-5.26v-4.11l-19.07-19.07h-5.73l13.7,13.7v21.39c1.96,0.94,3.33,2.94,3.33,5.26
					c0,0.24-0.01,0.47-0.04,0.7c-0.35,2.89-2.81,5.13-5.78,5.13c-0.9,0-1.76-0.2-2.51-0.56c-1.96-0.94-3.31-2.94-3.31-5.26
					s1.36-4.32,3.33-5.26v-19.32l-15.77-15.77h-4.26l6.05-5h27.56l2.76,2.7l8.95-8.63h6.36c0.94-1.96,2.94-3.33,5.26-3.33
					c3.22,0,5.83,2.61,5.83,5.83c0,3.21-2.61,5.83-5.83,5.83c-2.32,0-4.32-1.36-5.26-3.33h-4.34L225.56,508.32z"/>
				<g>
					<path class="st4" d="M180.82,504.03l4.09-3.38l0.04-0.03l5.53-4.57l0.74-0.61c0.89-0.74,0.89-2.11,0-2.84l-0.74-0.61
						l-9.66-7.98c-1.2-0.99-3.02-0.14-3.02,1.42v17.19C177.79,504.17,179.61,505.03,180.82,504.03z"/>
				</g>
				<path class="st5" d="M234.22,481.11h-6.37l-10.66,10.4h-18.82c1.26,1.42,1.26,3.58,0,5h20.85l10.67-10.4h4.34
					c0.94,1.96,2.94,3.32,5.26,3.32c3.22,0,5.83-2.61,5.83-5.83c0-3.22-2.61-5.83-5.83-5.83
					C237.16,477.78,235.16,479.15,234.22,481.11z"/>
				<path class="st5" d="M218.77,446.98v7.07l-8.06,8.06c-0.73-0.26-1.53-0.38-2.35-0.32c-3.21,0.22-5.63,3-5.41,6.21
					c0.22,3.21,3,5.63,6.21,5.41c3.21-0.22,5.63-3,5.41-6.21c-0.04-0.54-0.15-1.06-0.33-1.55l9.53-9.53v-9.14
					c1.97-0.94,3.33-2.94,3.33-5.26c0-3.22-2.61-5.83-5.83-5.83c-3.22,0-5.83,2.61-5.83,5.83
					C215.45,444.04,216.81,446.04,218.77,446.98z"/>
				<path class="st5" d="M188.51,528.74c0,2.33-1.36,4.32-3.33,5.26v29.69c-1.66,0.91-3.33,1.82-5,2.76V534
					c-1.96-0.94-3.33-2.94-3.33-5.26c0-3.21,2.61-5.82,5.83-5.82C185.9,522.92,188.51,525.53,188.51,528.74z"/>
				<path class="st5" d="M224.05,462.77c0,2.32,1.36,4.32,3.33,5.26v0.58l-11.45,11.45h-4.12c-0.94-1.97-2.94-3.33-5.26-3.33
					c-3.22,0-5.83,2.61-5.83,5.83c0,3.22,2.61,5.83,5.83,5.83c2.32,0,4.32-1.36,5.26-3.33H218l14.38-14.38v-2.65
					c1.97-0.94,3.33-2.94,3.33-5.26c0-3.22-2.61-5.83-5.83-5.83C226.66,456.95,224.05,459.56,224.05,462.77z"/>
			</g>
		</g>
	</g>
	<g>
		<g>
			<path class="st6" d="M375.96,450.67h22.98l54.14,132.96h-28.87l-9.12-25.26h-55.46l-9.12,25.26h-28.87L375.96,450.67z
				 M406.35,535.38l-14.25-36.28c-1.9-4.94-3.61-10.07-4.75-15.2c-1.33,5.13-2.85,10.45-4.75,15.2l-14.25,36.28H406.35z"/>
			<path class="st6" d="M460.86,484.86h24.88v18.8c3.42-14.25,13.49-22.03,30.58-21.08v24.12h-3.61c-14.82,0-26.21,9.88-26.21,26.4
				v50.53h-25.64V484.86z"/>
			<path class="st6" d="M538.17,553.05V506.7H524.3v-21.84h13.87v-19.94l25.64-2.66v22.6h20.89v21.84h-20.89v45.02
				c0,6.27,3.04,9.12,7.98,9.12h10.64v22.79h-14.06C548.8,583.63,538.17,574.51,538.17,553.05z"/>
			<path class="st6" d="M633.9,450.67h26.59v132.96H633.9V450.67z"/>
			<g>
				<path class="st6" d="M675.82,531.77c0-28.68,22.03-51.67,52.24-51.86c18.04-0.19,32.67,6.84,41.03,18.43l-19.75,16.15
					c-4.56-6.84-12.16-11.21-20.89-11.21c-16.34,0-26.97,13.11-26.97,28.49c0,15.39,11.21,28.49,27.54,28.49
					c9.88,0,16.34-4.94,21.46-11.78l18.61,16.15c-9.31,11.97-22.98,18.99-42.36,18.99C698.42,583.63,675.82,560.45,675.82,531.77z"
					/>
				<path class="st6" d="M819.49,480.1c-22.73,0-40.73,12.91-48.48,31.23h29.44c1.12-1.17,2.35-2.23,3.7-3.16
					c0.45-0.3,0.9-0.6,1.36-0.88c0.36-0.24,0.73-0.45,1.12-0.64c0.75-0.42,1.53-0.79,2.34-1.12c0.39-0.18,0.79-0.33,1.21-0.46
					c0.4-0.16,0.82-0.3,1.26-0.42c0.42-0.13,0.84-0.25,1.27-0.34c0.31-0.07,0.64-0.15,0.97-0.22c0.66-0.15,1.32-0.25,1.99-0.34
					c0.34-0.03,0.67-0.07,1.02-0.1c0.42-0.05,0.84-0.07,1.26-0.09c0.49-0.03,1-0.05,1.51-0.05c0.96,0,1.9,0.05,2.83,0.13
					c0.06,0.02,0.12,0.02,0.16,0.02c0.55,0.06,1.09,0.13,1.62,0.22c0.54,0.09,1.06,0.18,1.59,0.31c6.46,1.42,11.71,5.13,15.28,10.15
					c0.31,0.42,0.6,0.85,0.88,1.3c0.28,0.43,0.55,0.88,0.81,1.35c0.24,0.39,0.45,0.79,0.63,1.2c0.22,0.4,0.4,0.81,0.58,1.23
					c0.15,0.33,0.28,0.66,0.42,0.99c0.1,0.25,0.19,0.51,0.28,0.76c0.15,0.39,0.27,0.76,0.4,1.15v0.02c0.13,0.43,0.27,0.85,0.37,1.3
					c0.12,0.43,0.24,0.88,0.33,1.33c0.19,0.84,0.34,1.68,0.46,2.55c0.2,1.44,0.3,2.92,0.3,4.45c0,1.54-0.1,3.03-0.3,4.48
					c-1.35,9.64-6.99,17.78-15.56,21.57c-0.33,0.13-0.66,0.27-1,0.4c-0.52,0.21-1.05,0.39-1.59,0.57c-0.3,0.09-0.6,0.18-0.91,0.27
					c-1.02,0.28-2.08,0.51-3.16,0.67c-0.46,0.07-0.96,0.13-1.44,0.18c-0.97,0.1-1.98,0.15-3,0.15c-1.42,0-2.82-0.1-4.18-0.3
					c-0.37-0.05-0.76-0.1-1.14-0.19c-0.52-0.09-1.03-0.19-1.54-0.31c-0.33-0.09-0.63-0.16-0.95-0.25c-0.57-0.16-1.12-0.34-1.66-0.54
					c-0.27-0.09-0.52-0.19-0.78-0.3c-0.19-0.08-0.39-0.15-0.57-0.22c-0.24-0.1-0.46-0.19-0.69-0.31c-0.32-0.13-0.61-0.28-0.91-0.45
					c-0.36-0.18-0.72-0.37-1.06-0.57c-0.39-0.22-0.76-0.45-1.14-0.69c-0.48-0.31-0.96-0.63-1.42-0.99c-1.11-0.81-2.14-1.71-3.1-2.71
					h-29.38c7.71,18.36,25.75,31.23,48.54,31.23c30.58,0,52.62-23.18,52.62-51.67C872.11,503.47,850.07,480.1,819.49,480.1z"/>
				<path class="st6" d="M846.16,536.44c-1.33,10.04-7.17,17.91-15.56,21.57C839.18,554.22,844.81,546.08,846.16,536.44z"/>
				<path class="st6" d="M832.97,531.96c0,7.38-4.17,14.81-13.48,14.81c-6.28,0-10.22-3.39-12.11-7.86H741.3
					c-1.89,4.47-5.83,7.86-12.11,7.86c-9.31,0-13.48-7.44-13.48-14.81c0-7.21,4.21-14.99,13.48-14.99c6.15,0,10.07,3.43,12.01,7.86
					h66.29c1.93-4.42,5.86-7.86,12.01-7.86C828.76,516.96,832.97,524.75,832.97,531.96z"/>
			</g>
			<path class="st6" d="M887.44,484.86h25.26v14.44c5.13-11.02,15.01-16.72,30.2-16.72c21.27,0,37.61,15.77,37.61,40.65v60.4h-25.64
				v-54.14c0-17.09-8.55-24.5-21.27-24.5c-10.83,0-20.51,7.41-20.51,24.5v54.14h-25.64V484.86z"/>
		</g>
		<g>
			<path class="st6" d="M384.79,648.96v-32.2h4.53v32.2H384.79z"/>
			<path class="st6" d="M398.62,648.96v-19.24h-2.31v-4.61h4.77v3.66h1.67c0.82-1.33,1.95-2.34,3.38-3.04
				c1.43-0.7,3.11-1.05,5.05-1.05c3.07,0,5.5,0.88,7.28,2.64c1.78,1.76,2.66,4.12,2.66,7.06v14.59h-4.45v-13.83
				c0-2.15-0.58-3.78-1.73-4.89c-1.15-1.11-2.84-1.67-5.07-1.67c-2.2,0-3.88,0.56-5.05,1.67c-1.17,1.11-1.75,2.74-1.75,4.89v13.83
				H398.62z"/>
			<path class="st6" d="M434.32,648.96c-1.27,0-2.26-0.32-2.96-0.97c-0.7-0.65-1.05-1.62-1.05-2.92v-16.54h-4.45v-3.42h4.49v-7.16
				h4.37v7.16h6.24v3.42h-6.2v16.94h6.84v3.5H434.32z"/>
			<path class="st6" d="M457.58,649.44c-2.49,0-4.65-0.51-6.48-1.53c-1.83-1.02-3.24-2.47-4.23-4.35c-0.99-1.88-1.49-4.08-1.49-6.6
				c0-2.52,0.5-4.7,1.49-6.54c0.99-1.84,2.39-3.27,4.19-4.27c1.8-1.01,3.91-1.51,6.32-1.51c2.31,0,4.3,0.46,5.98,1.39
				c1.68,0.93,2.99,2.24,3.92,3.94c0.93,1.7,1.39,3.71,1.39,6.04v1.79h-19c0.13,2.49,0.89,4.43,2.29,5.82
				c1.39,1.39,3.25,2.09,5.59,2.09c1.62,0,2.98-0.34,4.1-1.01s1.88-1.68,2.31-3h4.53c-0.58,2.46-1.84,4.37-3.76,5.72
				C462.8,648.76,460.42,649.44,457.58,649.44z M449.83,634.53h14.55c-0.21-1.96-0.93-3.48-2.17-4.57
				c-1.23-1.09-2.86-1.63-4.87-1.63c-1.99,0-3.64,0.54-4.97,1.63C451.05,631.05,450.2,632.57,449.83,634.53z"/>
			<path class="st6" d="M474.95,648.96v-33.4h4.45v33.4H474.95z"/>
			<path class="st6" d="M487.28,648.96v-33.4h4.45v33.4H487.28z"/>
			<path class="st6" d="M501.83,621.85c-0.74,0-1.38-0.26-1.91-0.8c-0.53-0.53-0.79-1.17-0.79-1.91c0-0.74,0.26-1.38,0.79-1.91
				c0.53-0.53,1.17-0.79,1.91-0.79c0.74,0,1.38,0.27,1.91,0.79c0.53,0.53,0.8,1.17,0.8,1.91c0,0.74-0.27,1.38-0.8,1.91
				C503.21,621.58,502.57,621.85,501.83,621.85z M499.6,648.96v-23.85h4.45v23.85H499.6z"/>
			<path class="st6" d="M521.99,658.98c-3.31,0-6-0.69-8.07-2.07c-2.07-1.38-3.29-3.29-3.66-5.72h4.69c0.72,2.7,3.03,4.05,6.96,4.05
				c2.49,0,4.4-0.59,5.73-1.77c1.32-1.18,1.99-2.86,1.99-5.03v-3.86h-0.2c-0.64,1.41-1.64,2.48-3.02,3.24
				c-1.38,0.75-3.01,1.13-4.89,1.13c-2.25,0-4.21-0.5-5.88-1.49c-1.67-0.99-2.96-2.4-3.86-4.21c-0.9-1.82-1.35-3.97-1.35-6.46
				c0-3.74,1.01-6.7,3.02-8.89c2.01-2.19,4.77-3.28,8.27-3.28c1.91,0,3.55,0.35,4.93,1.05c1.38,0.7,2.46,1.73,3.26,3.08h1.67v-3.66
				h4.77v4.61h-2.31v18.92c0,3.26-1.05,5.8-3.16,7.61C528.76,658.07,525.8,658.98,521.99,658.98z M522.58,645.07
				c2.09,0,3.78-0.61,5.07-1.83s1.93-2.84,1.93-4.85v-3.18c0-2.01-0.64-3.63-1.93-4.85s-2.98-1.83-5.07-1.83
				c-2.41,0-4.3,0.72-5.67,2.17c-1.37,1.44-2.05,3.48-2.05,6.1s0.68,4.66,2.05,6.1C518.28,644.34,520.17,645.07,522.58,645.07z"/>
			<path class="st6" d="M553.31,649.44c-2.49,0-4.65-0.51-6.48-1.53c-1.83-1.02-3.24-2.47-4.23-4.35c-0.99-1.88-1.49-4.08-1.49-6.6
				c0-2.52,0.5-4.7,1.49-6.54s2.39-3.27,4.19-4.27c1.8-1.01,3.91-1.51,6.32-1.51c2.3,0,4.3,0.46,5.98,1.39s2.99,2.24,3.92,3.94
				c0.93,1.7,1.39,3.71,1.39,6.04v1.79h-19c0.13,2.49,0.89,4.43,2.29,5.82c1.39,1.39,3.25,2.09,5.59,2.09c1.62,0,2.98-0.34,4.1-1.01
				s1.88-1.68,2.3-3h4.53c-0.58,2.46-1.84,4.37-3.76,5.72S556.15,649.44,553.31,649.44z M545.56,634.53h14.55
				c-0.21-1.96-0.93-3.48-2.17-4.57c-1.23-1.09-2.86-1.63-4.87-1.63c-1.99,0-3.64,0.54-4.97,1.63
				C546.78,631.05,545.93,632.57,545.56,634.53z"/>
			<path class="st6" d="M571.48,648.96v-19.24h-2.31v-4.61h4.77v3.66h1.67c0.82-1.33,1.95-2.34,3.38-3.04
				c1.43-0.7,3.11-1.05,5.05-1.05c3.08,0,5.5,0.88,7.28,2.64c1.78,1.76,2.66,4.12,2.66,7.06v14.59h-4.45v-13.83
				c0-2.15-0.58-3.78-1.73-4.89c-1.15-1.11-2.84-1.67-5.07-1.67c-2.2,0-3.88,0.56-5.05,1.67c-1.17,1.11-1.75,2.74-1.75,4.89v13.83
				H571.48z"/>
			<path class="st6" d="M611.87,649.44c-2.41,0-4.52-0.51-6.32-1.53c-1.8-1.02-3.2-2.46-4.19-4.31c-0.99-1.85-1.49-4.04-1.49-6.56
				c0-2.52,0.49-4.7,1.47-6.56c0.98-1.86,2.37-3.29,4.17-4.31s3.92-1.53,6.36-1.53c2.92,0,5.35,0.72,7.29,2.17
				c1.95,1.45,3.23,3.52,3.84,6.22h-4.49c-0.45-1.54-1.23-2.67-2.33-3.4c-1.1-0.73-2.54-1.09-4.31-1.09c-2.36,0-4.21,0.74-5.55,2.23
				c-1.34,1.48-2.01,3.58-2.01,6.28c0,2.68,0.67,4.76,2.01,6.26c1.34,1.5,3.19,2.25,5.55,2.25c3.68,0,5.95-1.63,6.8-4.89h4.49
				c-0.58,2.84-1.86,5.01-3.82,6.52C617.39,648.68,614.9,649.44,611.87,649.44z"/>
			<path class="st6" d="M638.87,649.44c-2.49,0-4.65-0.51-6.48-1.53c-1.83-1.02-3.24-2.47-4.23-4.35c-0.99-1.88-1.49-4.08-1.49-6.6
				c0-2.52,0.5-4.7,1.49-6.54s2.39-3.27,4.19-4.27c1.8-1.01,3.91-1.51,6.32-1.51c2.31,0,4.3,0.46,5.98,1.39
				c1.68,0.93,2.99,2.24,3.92,3.94c0.93,1.7,1.39,3.71,1.39,6.04v1.79h-19c0.13,2.49,0.89,4.43,2.29,5.82
				c1.39,1.39,3.25,2.09,5.59,2.09c1.62,0,2.98-0.34,4.09-1.01s1.88-1.68,2.31-3h4.53c-0.58,2.46-1.84,4.37-3.76,5.72
				C644.08,648.76,641.7,649.44,638.87,649.44z M631.12,634.53h14.55c-0.21-1.96-0.93-3.48-2.17-4.57
				c-1.23-1.09-2.86-1.63-4.87-1.63c-1.99,0-3.64,0.54-4.97,1.63C632.33,631.05,631.49,632.57,631.12,634.53z"/>
			<path class="st6" d="M671.19,621.85c-0.74,0-1.38-0.26-1.91-0.8c-0.53-0.53-0.79-1.17-0.79-1.91c0-0.74,0.26-1.38,0.79-1.91
				c0.53-0.53,1.17-0.79,1.91-0.79c0.74,0,1.38,0.27,1.91,0.79c0.53,0.53,0.79,1.17,0.79,1.91c0,0.74-0.27,1.38-0.79,1.91
				C672.57,621.58,671.93,621.85,671.19,621.85z M668.96,648.96v-23.85h4.45v23.85H668.96z"/>
			<path class="st6" d="M682.08,648.96v-19.24h-2.31v-4.61h4.77v3.66h1.67c0.82-1.33,1.95-2.34,3.38-3.04
				c1.43-0.7,3.11-1.05,5.05-1.05c3.08,0,5.5,0.88,7.28,2.64c1.78,1.76,2.66,4.12,2.66,7.06v14.59h-4.45v-13.83
				c0-2.15-0.58-3.78-1.73-4.89c-1.15-1.11-2.84-1.67-5.07-1.67c-2.2,0-3.88,0.56-5.05,1.67c-1.17,1.11-1.75,2.74-1.75,4.89v13.83
				H682.08z"/>
			<path class="st6" d="M739.53,649.48c-3.26,0-6.1-0.68-8.53-2.05s-4.3-3.29-5.63-5.79c-1.33-2.49-1.99-5.42-1.99-8.79
				c0-3.37,0.66-6.29,1.99-8.77s3.2-4.4,5.63-5.76s5.27-2.05,8.53-2.05c2.49,0,4.7,0.4,6.62,1.21c1.92,0.81,3.5,1.99,4.75,3.54
				s2.09,3.43,2.54,5.63h-4.61c-0.48-2.04-1.52-3.62-3.12-4.73c-1.6-1.11-3.67-1.67-6.18-1.67c-3.63,0-6.48,1.13-8.55,3.38
				s-3.1,5.33-3.1,9.22c0,3.92,1.03,7,3.1,9.24c2.07,2.24,4.92,3.36,8.55,3.36c2.52,0,4.58-0.55,6.18-1.65
				c1.6-1.1,2.64-2.67,3.12-4.71h4.61c-0.45,2.17-1.3,4.04-2.54,5.59c-1.25,1.55-2.83,2.74-4.75,3.56
				C744.23,649.07,742.02,649.48,739.53,649.48z"/>
			<path class="st6" d="M760.05,648.96v-19.24h-2.31v-4.61h4.77v4.45h1.67c0.66-1.46,1.69-2.6,3.08-3.42
				c1.39-0.82,3.03-1.23,4.91-1.23h1.95v3.82h-2.19c-2.38,0-4.23,0.7-5.53,2.11c-1.3,1.41-1.95,3.3-1.95,5.69v12.44H760.05z"/>
			<path class="st6" d="M788.91,649.44c-2.49,0-4.65-0.51-6.48-1.53c-1.83-1.02-3.24-2.47-4.23-4.35c-0.99-1.88-1.49-4.08-1.49-6.6
				c0-2.52,0.5-4.7,1.49-6.54s2.39-3.27,4.19-4.27c1.8-1.01,3.91-1.51,6.32-1.51c2.31,0,4.3,0.46,5.98,1.39
				c1.68,0.93,2.99,2.24,3.92,3.94c0.93,1.7,1.39,3.71,1.39,6.04v1.79h-19c0.13,2.49,0.89,4.43,2.29,5.82
				c1.39,1.39,3.25,2.09,5.59,2.09c1.62,0,2.98-0.34,4.09-1.01s1.88-1.68,2.31-3h4.53c-0.58,2.46-1.84,4.37-3.76,5.72
				C794.12,648.76,791.74,649.44,788.91,649.44z M781.16,634.53h14.55c-0.21-1.96-0.93-3.48-2.17-4.57
				c-1.23-1.09-2.86-1.63-4.87-1.63c-1.99,0-3.64,0.54-4.97,1.63C782.38,631.05,781.53,632.57,781.16,634.53z"/>
			<path class="st6" d="M813.12,649.4c-2.7,0-4.83-0.67-6.38-2.01c-1.55-1.34-2.33-3.09-2.33-5.27c0-2.28,0.77-4.05,2.31-5.31
				c1.54-1.26,3.75-1.89,6.64-1.89h8.15v-1.07c0-3.68-2.03-5.53-6.08-5.53c-3.31,0-5.31,1.25-6,3.74h-4.49
				c0.4-2.36,1.53-4.19,3.4-5.49c1.87-1.3,4.26-1.95,7.18-1.95c3.31,0,5.85,0.78,7.61,2.35c1.76,1.56,2.64,3.82,2.64,6.76v10.62
				h2.15v4.61h-4.77v-3.66h-1.67c-0.82,1.27-1.95,2.27-3.38,3C816.66,649.04,815,649.4,813.12,649.4z M813.72,645.82
				c1.43,0,2.74-0.29,3.94-0.88c1.19-0.58,2.13-1.38,2.82-2.38s1.03-2.11,1.03-3.3v-1.07h-7.87c-3.34,0-5.01,1.25-5.01,3.74
				c0,1.19,0.45,2.14,1.35,2.84C810.88,645.47,812.13,645.82,813.72,645.82z"/>
			<path class="st6" d="M840,648.96c-1.27,0-2.26-0.32-2.96-0.97s-1.05-1.62-1.05-2.92v-16.54h-4.45v-3.42h4.49v-7.16h4.37v7.16
				h6.24v3.42h-6.2v16.94h6.84v3.5H840z"/>
			<path class="st6" d="M854.86,621.85c-0.74,0-1.38-0.26-1.91-0.8c-0.53-0.53-0.79-1.17-0.79-1.91c0-0.74,0.26-1.38,0.79-1.91
				c0.53-0.53,1.17-0.79,1.91-0.79c0.74,0,1.38,0.27,1.91,0.79c0.53,0.53,0.79,1.17,0.79,1.91c0,0.74-0.27,1.38-0.79,1.91
				C856.24,621.58,855.61,621.85,854.86,621.85z M852.64,648.96v-23.85h4.45v23.85H852.64z"/>
			<path class="st6" d="M875.62,649.44c-2.46,0-4.62-0.51-6.46-1.53c-1.84-1.02-3.27-2.46-4.27-4.31c-1.01-1.85-1.51-4.04-1.51-6.56
				c0-2.52,0.5-4.7,1.51-6.56s2.43-3.29,4.27-4.31c1.84-1.02,4-1.53,6.46-1.53c2.54,0,4.72,0.5,6.54,1.51
				c1.82,1.01,3.22,2.44,4.21,4.29c0.99,1.86,1.49,4.05,1.49,6.6c0,2.52-0.5,4.71-1.49,6.58c-0.99,1.87-2.41,3.31-4.23,4.31
				C880.31,648.94,878.13,649.44,875.62,649.44z M875.62,645.54c2.46,0,4.38-0.75,5.75-2.25c1.36-1.5,2.05-3.58,2.05-6.26
				c0-2.7-0.68-4.8-2.05-6.28c-1.37-1.48-3.28-2.23-5.75-2.23c-2.44,0-4.35,0.75-5.72,2.25c-1.38,1.5-2.07,3.58-2.07,6.26
				s0.69,4.76,2.07,6.26C871.27,644.79,873.18,645.54,875.62,645.54z"/>
			<path class="st6" d="M894.94,648.96v-19.24h-2.31v-4.61h4.77v3.66h1.67c0.82-1.33,1.95-2.34,3.38-3.04
				c1.43-0.7,3.11-1.05,5.05-1.05c3.08,0,5.5,0.88,7.28,2.64c1.78,1.76,2.66,4.12,2.66,7.06v14.59h-4.45v-13.83
				c0-2.15-0.58-3.78-1.73-4.89c-1.15-1.11-2.84-1.67-5.07-1.67c-2.2,0-3.88,0.56-5.05,1.67c-1.17,1.11-1.75,2.74-1.75,4.89v13.83
				H894.94z"/>
		</g>
	</g>
</g>
</svg>
