<?xml version="1.0" encoding="utf-8"?>
<!-- Generator: Adobe Illustrator 28.0.0, SVG Export Plug-In . SVG Version: 6.00 Build 0)  -->
<svg version="1.1" id="Layer_1" xmlns="http://www.w3.org/2000/svg" xmlns:xlink="http://www.w3.org/1999/xlink" x="0px" y="0px"
	 viewBox="0 0 1080 1080" style="enable-background:new 0 0 1080 1080;" xml:space="preserve">
<style type="text/css">
	.st0{fill:#1A1A1A;}
	.st1{fill:#B51F62;}
	.st2{fill:#D41B5F;}
	.st3{fill:#EC513D;}
	.st4{fill:#F49534;}
	.st5{fill:#FFFFFF;}
</style>
<g>
	<g>
		<g>
			<path class="st0" d="M433.39,602.07l-0.06-79.64l-0.85,0l-30.1,79.66l-16.61,0.01l-30.05-79.62l-0.85,0l0.06,79.64l-22.54,0.02
				l-0.08-116.58l33.21-0.02l28.52,74.71l1.02,0l28.41-74.75l33.04-0.02l0.08,116.58L433.39,602.07z"/>
			<path class="st0" d="M537.09,591.32l-1.36,0c-2.14,4.18-5.36,7.24-9.65,9.16c-4.29,1.92-9.77,2.89-16.43,2.89
				c-7.57,0.01-13.33-1.23-17.29-3.72c-3.96-2.48-6.61-6.09-7.97-10.84c-1.36-4.74-2.04-11.12-2.05-19.14l-0.04-54.05l22.54-0.02
				l0.03,45.75c0.01,7.12,0.32,12.12,0.94,15c0.62,2.88,1.92,4.74,3.9,5.59s5.4,1.27,10.25,1.26c4.74,0,8.27-0.74,10.59-2.21
				c2.31-1.47,3.84-3.76,4.57-6.87c0.73-3.11,1.1-7.71,1.09-13.81l-0.03-44.73l22.54-0.02l0.06,86.42L537.77,602L537.09,591.32z"/>
			<path class="st0" d="M582.67,601.96l-0.09-125.9l22.71-0.02l0.09,125.9L582.67,601.96z"/>
			<path class="st0" d="M637.57,601.92l-0.05-67.78l-16.61,0.01l-0.01-18.64l16.61-0.01l-0.02-25.08l22.54-0.02l0.02,25.08
				l19.66-0.01l0.01,18.64l-19.66,0.01l0.05,67.78L637.57,601.92z"/>
			<path class="st0" d="M695.11,496.49l-0.01-20.5l23.21-0.02l0.01,20.5L695.11,496.49z M695.35,601.88l-0.06-86.42l22.7-0.02
				l0.06,86.42L695.35,601.88z"/>
			<path class="st0" d="M741.7,496.45l-0.01-20.5l23.21-0.02l0.01,20.5L741.7,496.45z M741.95,601.85l-0.06-86.42l22.71-0.02
				l0.06,86.42L741.95,601.85z"/>
			<path class="st0" d="M835.48,602.46c-4.63,0.45-9.09,0.68-13.39,0.69c-11.07,0.01-19.21-1.6-24.4-4.81
				c-5.2-3.22-8.54-7.84-10.01-13.89c-1.47-6.04-2.21-14.71-2.22-26.01c-0.01-10.73,0.78-19.15,2.35-25.25
				c1.57-6.1,4.99-10.82,10.24-14.16c5.25-3.34,13.13-5.01,23.63-5.02c4.29,0,8.73,0.25,13.3,0.75c4.58,0.51,8.44,1.15,11.61,1.94
				l0.01,17.45c-5.88-1.01-12.2-1.52-18.98-1.51c-5.99,0-10.28,0.69-12.88,2.04c-2.6,1.36-4.32,3.76-5.16,7.21
				c-0.85,3.45-1.27,9.01-1.26,16.69c0.01,7.79,0.46,13.41,1.37,16.86c0.91,3.45,2.69,5.82,5.34,7.11c2.65,1.3,6.97,1.94,12.96,1.94
				c4.07,0,10.51-0.46,19.32-1.37l0.01,17.45C844.06,601.38,840.11,602,835.48,602.46z"/>
			<path class="st0" d="M876.4,599.29c-5.48-2.54-8.98-6.74-10.51-12.62c-1.53-5.87-2.3-15.3-2.31-28.3
				c-0.01-12.99,0.74-22.39,2.27-28.22c1.52-5.82,4.99-9.97,10.41-12.46c5.42-2.49,14.4-3.74,26.94-3.75
				c12.54-0.01,21.52,1.23,26.94,3.71c5.42,2.48,8.9,6.63,10.43,12.45c1.53,5.82,2.3,15.22,2.31,28.21
				c0.01,12.99-0.75,22.43-2.27,28.3c-1.52,5.88-5.02,10.09-10.5,12.63c-5.48,2.54-14.43,3.82-26.85,3.83
				C890.83,603.1,881.88,601.83,876.4,599.29z M915.36,582.74c2.2-1.13,3.55-3.28,4.06-6.44c0.51-3.16,0.76-9.15,0.75-17.96
				c-0.01-8.81-0.26-14.77-0.78-17.88c-0.51-3.1-1.87-5.19-4.07-6.27c-2.2-1.07-6.25-1.6-12.12-1.6c-5.88,0-9.91,0.54-12.12,1.62
				c-2.2,1.08-3.56,3.17-4.06,6.27c-0.51,3.11-0.75,9.07-0.75,17.88c0.01,8.81,0.26,14.8,0.77,17.96c0.51,3.16,1.87,5.31,4.07,6.44
				c2.21,1.13,6.24,1.69,12.12,1.69C909.12,584.44,913.16,583.88,915.36,582.74z"/>
			<path class="st0" d="M1017.43,555.9c-0.01-7.23-0.32-12.25-0.94-15.08c-0.62-2.82-1.89-4.66-3.82-5.5
				c-1.92-0.85-5.31-1.27-10.17-1.26c-4.86,0-8.44,0.74-10.76,2.21c-2.31,1.47-3.84,3.79-4.57,6.95c-0.73,3.16-1.1,7.74-1.09,13.73
				l0.03,44.73l-22.54,0.02l-0.06-86.42l21.18-0.02l0.69,10.67l1.36,0c2.14-4.18,5.36-7.23,9.65-9.16
				c4.29-1.92,9.77-2.89,16.43-2.89c7.57-0.01,13.33,1.23,17.29,3.71c3.96,2.48,6.59,6.1,7.89,10.84c1.3,4.74,1.96,11.13,1.96,19.15
				l0.04,54.05l-22.54,0.02L1017.43,555.9z"/>
		</g>
	</g>
	<g>
		
			<rect x="27.28" y="476.34" transform="matrix(0.7066 -0.7076 0.7076 0.7066 -316.3383 222.8079)" class="st1" width="166.47" height="33.06"/>
		
			<rect x="58.74" y="507.76" transform="matrix(0.7066 -0.7076 0.7076 0.7066 -329.3405 254.295)" class="st2" width="166.47" height="33.06"/>
		
			<rect x="90.21" y="539.18" transform="matrix(0.7066 -0.7076 0.7076 0.7066 -342.3428 285.782)" class="st3" width="166.47" height="33.06"/>
		
			<rect x="235.52" y="523.41" transform="matrix(0.7066 -0.7076 0.7076 0.7066 -308.1164 336.772)" class="st4" width="33.06" height="33.05"/>
		
			<rect x="128.2" y="586.34" transform="matrix(0.7066 -0.7076 0.7076 0.7066 -371.0894 310.7678)" class="st4" width="121.99" height="33.05"/>
	</g>
</g>
</svg>
